<svg width="77" height="70" viewBox="0 0 77 70" fill="none" xmlns="http://www.w3.org/2000/svg">
<path d="M77 70H0V65.7697L0.531041 63.6543C0.708054 62.0679 2.01793 57.8371 5.84136 53.6067C10.6207 48.3185 24.4276 45.6746 27.8793 43.8237C30.6407 42.3429 30.623 39.5049 30.269 38.2711C28.5697 37.2134 25.6667 29.193 24.4276 25.315C22.6575 18.5286 21.1883 4.26816 29.4724 1.51833C37.7564 -1.23151 44.4297 0.372564 46.7311 1.51833C58.8387 8.92175 51.7759 28.7524 46.7311 37.7423C45.6691 40.0338 46.253 45.1456 57.0863 47.261C67.9191 49.3764 73.2827 55.3695 74.6102 58.1016C76.3095 60.4285 76.9115 67.0035 77 70Z" fill="#7BB661"/>
</svg>
