<svg width="12" height="13" viewBox="0 0 12 13" fill="none" xmlns="http://www.w3.org/2000/svg">
<path d="M7.23885 8.05633C7.25637 8.02883 7.27698 8.0045 7.29965 7.98439C7.59228 7.5316 7.94983 7.11265 8.30634 6.7667C8.59795 6.48423 8.89161 6.24831 9.14818 6.08327C9.43978 5.89601 9.70459 5.79234 9.9014 5.79868C10.0766 5.80397 10.2095 5.87909 10.2888 6.03037C10.4217 6.2864 10.363 6.62917 10.1641 7.00368C9.97146 7.36761 9.63556 7.7855 9.22546 8.17906C8.82154 8.56626 8.34035 8.93443 7.84782 9.20526C7.65925 9.30894 7.46863 9.39781 7.27801 9.46975C7.25328 9.59247 7.23782 9.71307 7.23267 9.82733C7.2234 10.0569 7.25843 10.26 7.34395 10.4134C7.42123 10.551 7.54591 10.6515 7.7252 10.697C7.888 10.7382 8.09408 10.7372 8.34962 10.6843C8.41041 10.515 8.48666 10.3468 8.57528 10.1796C8.83391 9.69086 9.20176 9.22113 9.61495 8.8445C10.4691 8.06586 11.0462 7.71674 11.3831 7.65114C11.7788 7.57391 11.9756 7.7453 11.9983 8.08384C12.0117 8.28273 11.9272 8.55251 11.7582 8.84873C11.3192 9.61786 10.2383 10.7181 8.83906 11.1783L8.81536 11.1857C8.79475 11.2799 8.78136 11.3719 8.77517 11.4608C8.75663 11.7464 8.81845 12.0056 8.9895 12.2024C9.06059 12.2849 9.1523 12.3579 9.26461 12.4214C9.40578 12.5008 9.45214 12.6859 9.36765 12.8351C9.28316 12.9842 9.09975 13.0414 8.95858 12.9631C8.78754 12.8679 8.6474 12.7525 8.53406 12.6224C8.25379 12.2987 8.14972 11.8914 8.17857 11.4513C8.18167 11.41 8.18476 11.3677 8.18991 11.3254C7.94777 11.3529 7.7355 11.3391 7.55209 11.2926C7.21206 11.2069 6.97301 11.0101 6.82154 10.7414C6.7422 10.6007 6.68965 10.4409 6.6608 10.2685C6.65874 10.2611 6.65668 10.2537 6.65565 10.2463C6.61958 10.0484 6.61649 9.84426 6.64019 9.63796C6.27131 9.68768 5.92304 9.64431 5.62113 9.47504C5.45008 9.37982 5.30995 9.26451 5.19661 9.13438C4.91634 8.81065 4.81227 8.40334 4.84112 7.96324C4.84421 7.92092 4.84833 7.8786 4.85348 7.83628C4.78342 7.84369 4.71335 7.84792 4.64534 7.84898C4.34962 7.85109 4.07553 7.7855 3.84267 7.62258C3.56034 7.42474 3.39341 7.119 3.33159 6.75189C3.3285 6.74237 3.32644 6.73285 3.32438 6.72227C3.28831 6.52443 3.28522 6.32025 3.30892 6.11395C2.94004 6.16367 2.59176 6.1203 2.28986 5.95103C2.11881 5.85581 1.97868 5.7405 1.86533 5.61037C1.58507 5.28664 1.481 4.87933 1.50985 4.43923C1.51294 4.39585 1.51706 4.35142 1.52221 4.30698C1.33468 4.32497 1.16466 4.31756 1.0101 4.289C0.684499 4.22764 0.433082 4.06895 0.259975 3.8362C0.095112 3.6098 0.00649784 3.31887 0.000315457 2.98561C-0.00689732 2.57725 0.109538 2.09906 0.353742 1.59759C0.510362 1.27704 0.719532 0.963886 0.978162 0.686705C1.21721 0.430682 1.49645 0.206399 1.81278 0.0350118C1.96116 -0.0453918 2.13942 0.00962121 2.21052 0.158791C2.28161 0.307961 2.21876 0.493101 2.07038 0.573505C1.81484 0.711037 1.58919 0.893003 1.3965 1.09824C1.18527 1.32464 1.0132 1.58278 0.883365 1.84833C0.684499 2.25669 0.588672 2.63226 0.594854 2.94118C0.598976 3.14748 0.647405 3.32098 0.742201 3.44688C0.830815 3.56642 0.966828 3.64894 1.14921 3.6828C1.29758 3.71031 1.47481 3.70713 1.68192 3.66693C1.74272 3.49872 1.81897 3.3305 1.90655 3.16546C2.16518 2.6767 2.53303 2.20697 2.94622 1.83034C3.79939 1.05275 4.37744 0.70469 4.71438 0.638039C5.11005 0.560809 5.30686 0.732196 5.32953 1.07074C5.34292 1.26963 5.25843 1.53941 5.08945 1.83563C4.6505 2.60476 3.56961 3.70502 2.17033 4.16522L2.14663 4.17263C2.12602 4.26678 2.11263 4.35882 2.10645 4.44769C2.0879 4.73334 2.14972 4.99147 2.32077 5.18931C2.39187 5.27183 2.48357 5.34483 2.59588 5.4083C2.83391 5.5416 3.13375 5.54901 3.46039 5.47072C3.51088 5.32578 3.57167 5.18085 3.64071 5.03697C3.71387 4.88251 3.79733 4.72805 3.89212 4.57782C4.19712 4.08058 4.58558 3.61721 4.97301 3.24164C5.26461 2.95811 5.55828 2.72324 5.81484 2.55821C6.10645 2.37095 6.37126 2.26727 6.56806 2.27362C6.74323 2.27891 6.87615 2.35402 6.95549 2.50531C7.08841 2.76133 7.02968 3.1041 6.83082 3.47862C6.63813 3.84255 6.30222 4.26044 5.89212 4.65399C5.48821 5.0412 5.00701 5.40936 4.51448 5.68019C4.32592 5.78387 4.13633 5.87274 3.94674 5.94362C3.92201 6.06105 3.90655 6.17637 3.9014 6.2864C3.88388 6.65244 3.97662 6.95502 4.19506 7.10842C4.32386 7.19834 4.48769 7.23537 4.67213 7.23325C4.7793 7.2322 4.89264 7.21844 5.01114 7.19411C5.07193 7.02484 5.14818 6.85663 5.23679 6.68947C5.49542 6.2007 5.86327 5.73098 6.27646 5.35435C7.13066 4.5757 7.70768 4.22658 8.04462 4.16099C8.44029 4.08376 8.6371 4.25515 8.65977 4.59369C8.67316 4.79258 8.58867 5.06236 8.41969 5.35858C7.98074 6.1277 6.89985 7.22797 5.50057 7.68817L5.47687 7.69558C5.45627 7.78973 5.44287 7.88177 5.43669 7.97064C5.41814 8.25629 5.47997 8.51442 5.65101 8.71226C5.72211 8.79478 5.81381 8.86778 5.92613 8.93125C6.16415 9.06455 6.46399 9.07196 6.79063 8.99367C6.81021 8.9376 6.83185 8.88153 6.85348 8.82546C6.95446 8.56415 7.08429 8.30178 7.23885 8.05633ZM4.42793 4.81797C4.41969 4.84019 4.40938 4.8624 4.39496 4.88356C4.33726 4.97455 4.28471 5.06553 4.23628 5.15757L4.25482 5.14699C4.69583 4.90472 5.13066 4.57147 5.49851 4.21918C5.86018 3.87217 6.15075 3.51247 6.31253 3.20778C6.3795 3.08189 6.42175 2.97715 6.43308 2.90309C6.35374 2.92954 6.24349 2.98773 6.11263 3.07237C5.88903 3.21519 5.63246 3.42254 5.37177 3.67434C5.03586 4.0023 4.69686 4.39903 4.42793 4.81797ZM2.43926 3.4162C3.46657 2.95282 4.24452 2.13609 4.58146 1.54575C4.64534 1.43361 4.69068 1.33734 4.71541 1.26223C4.45678 1.35321 4.00959 1.66001 3.33159 2.27891C2.97713 2.60158 2.66286 3.00148 2.43926 3.4162ZM5.77054 6.94126C6.79784 6.47788 7.57579 5.66115 7.91273 5.07082C7.97662 4.95868 8.02195 4.8624 8.04668 4.78729C7.78805 4.87827 7.34086 5.18508 6.66286 5.80397C6.30943 6.12665 5.99413 6.52655 5.77054 6.94126ZM7.55828 8.68793C7.56858 8.68264 7.57785 8.67735 7.58816 8.67206C8.02917 8.42979 8.46399 8.09654 8.83185 7.74424C9.19351 7.39724 9.48409 7.03754 9.64586 6.73285C9.71284 6.60695 9.75508 6.50222 9.76642 6.42816C9.68707 6.45461 9.57682 6.5128 9.44596 6.59743C9.22237 6.74025 8.9658 6.94761 8.70511 7.1994C8.27543 7.61517 7.8437 8.14414 7.55828 8.68793ZM9.10799 10.4304C10.1353 9.96698 10.9132 9.15025 11.2502 8.55992C11.3141 8.44777 11.3594 8.3515 11.3841 8.27639C11.1255 8.36737 10.6783 8.67417 10.0003 9.29307C9.64689 9.61574 9.33159 10.0156 9.10799 10.4304Z" fill="white"/>
</svg>
