<svg width="71" height="70" viewBox="0 0 71 70" fill="none" xmlns="http://www.w3.org/2000/svg">
<mask id="path-1-inside-1_1010_70" fill="white">
<path d="M69.5793 57.5231L52.6967 40.6407C52.1147 40.0587 51.1721 40.0587 50.5903 40.6407L48.1674 43.0636L45.1918 40.0879L53.5282 31.7535C57.8714 27.4112 57.9776 20.4515 53.7654 16.2384C49.5524 12.0239 42.59 12.1303 38.246 16.4756L29.9112 24.8073L26.9355 21.8317L29.358 19.4099C29.6371 19.1308 29.7944 18.7524 29.7944 18.3565C29.7944 17.9608 29.6373 17.5827 29.358 17.3031L12.4737 0.419033C11.915 -0.139678 10.926 -0.139678 10.3673 0.419033L1.92676 8.86096C1.34473 9.44298 1.34473 10.3855 1.92676 10.9674L18.808 27.8497C19.0991 28.1407 19.4802 28.2861 19.8615 28.2861C20.2426 28.2861 20.6239 28.1407 20.9149 27.8497L24.8289 23.937L27.805 26.9131L20.0457 34.6695C19.7665 34.9487 19.6092 35.327 19.6092 35.723C19.6092 36.1187 19.7663 36.4968 20.0457 36.7764L20.5923 37.323C16.5935 36.879 12.436 38.1787 9.37576 41.238C9.09662 41.5171 8.93934 41.8955 8.93934 42.2914C8.93934 42.6871 9.0964 43.0653 9.37576 43.3448L26.6534 60.6231C26.9444 60.9141 27.3255 61.0595 27.7068 61.0595C28.0881 61.0595 28.4692 60.9141 28.7603 60.6231C31.3489 58.0352 32.7747 54.5932 32.7747 50.9315C32.7747 50.4188 32.74 49.912 32.6851 49.4095L33.2236 49.948C33.5147 50.2391 33.8958 50.3845 34.2771 50.3845C34.6582 50.3845 35.0395 50.2391 35.3305 49.948L43.0864 42.1941L46.0625 45.1702L42.1498 49.0829C41.8706 49.362 41.7133 49.7403 41.7133 50.1363C41.7133 50.5322 41.8704 50.9101 42.1498 51.1897L59.034 68.072C59.3132 68.3512 59.6924 68.5085 60.0875 68.5085C60.4823 68.5085 60.8613 68.3514 61.1409 68.072L69.5814 59.6301C70.1613 59.0479 70.1613 58.1051 69.5793 57.5231ZM19.861 24.6907L5.08618 9.91479L11.4203 3.57927L26.1971 18.3569L19.861 24.6907ZM29.7942 50.9315C29.7942 53.2942 29.0354 55.5403 27.6339 57.3908L12.6081 42.3645C16.7349 39.2503 22.6057 39.5316 26.4376 43.1664L27.0044 43.7329C28.8003 45.7104 29.7942 48.2418 29.7942 50.9315ZM34.2756 46.7885L29.1081 41.6233C28.9898 41.4964 28.8821 41.3618 28.759 41.2386C28.6388 41.1183 28.5078 41.0148 28.3838 40.8997L23.2051 35.7238L40.3517 18.5822C43.5341 15.3978 48.6068 15.2929 51.6584 18.3451C54.709 21.3957 54.6029 26.4657 51.4212 29.6471L34.2756 46.7885ZM60.0855 64.912L45.3077 50.1361L51.6433 43.8005L66.4194 58.5765L60.0855 64.912Z"/>
</mask>
<path d="M69.5793 57.5231L52.6967 40.6407C52.1147 40.0587 51.1721 40.0587 50.5903 40.6407L48.1674 43.0636L45.1918 40.0879L53.5282 31.7535C57.8714 27.4112 57.9776 20.4515 53.7654 16.2384C49.5524 12.0239 42.59 12.1303 38.246 16.4756L29.9112 24.8073L26.9355 21.8317L29.358 19.4099C29.6371 19.1308 29.7944 18.7524 29.7944 18.3565C29.7944 17.9608 29.6373 17.5827 29.358 17.3031L12.4737 0.419033C11.915 -0.139678 10.926 -0.139678 10.3673 0.419033L1.92676 8.86096C1.34473 9.44298 1.34473 10.3855 1.92676 10.9674L18.808 27.8497C19.0991 28.1407 19.4802 28.2861 19.8615 28.2861C20.2426 28.2861 20.6239 28.1407 20.9149 27.8497L24.8289 23.937L27.805 26.9131L20.0457 34.6695C19.7665 34.9487 19.6092 35.327 19.6092 35.723C19.6092 36.1187 19.7663 36.4968 20.0457 36.7764L20.5923 37.323C16.5935 36.879 12.436 38.1787 9.37576 41.238C9.09662 41.5171 8.93934 41.8955 8.93934 42.2914C8.93934 42.6871 9.0964 43.0653 9.37576 43.3448L26.6534 60.6231C26.9444 60.9141 27.3255 61.0595 27.7068 61.0595C28.0881 61.0595 28.4692 60.9141 28.7603 60.6231C31.3489 58.0352 32.7747 54.5932 32.7747 50.9315C32.7747 50.4188 32.74 49.912 32.6851 49.4095L33.2236 49.948C33.5147 50.2391 33.8958 50.3845 34.2771 50.3845C34.6582 50.3845 35.0395 50.2391 35.3305 49.948L43.0864 42.1941L46.0625 45.1702L42.1498 49.0829C41.8706 49.362 41.7133 49.7403 41.7133 50.1363C41.7133 50.5322 41.8704 50.9101 42.1498 51.1897L59.034 68.072C59.3132 68.3512 59.6924 68.5085 60.0875 68.5085C60.4823 68.5085 60.8613 68.3514 61.1409 68.072L69.5814 59.6301C70.1613 59.0479 70.1613 58.1051 69.5793 57.5231ZM19.861 24.6907L5.08618 9.91479L11.4203 3.57927L26.1971 18.3569L19.861 24.6907ZM29.7942 50.9315C29.7942 53.2942 29.0354 55.5403 27.6339 57.3908L12.6081 42.3645C16.7349 39.2503 22.6057 39.5316 26.4376 43.1664L27.0044 43.7329C28.8003 45.7104 29.7942 48.2418 29.7942 50.9315ZM34.2756 46.7885L29.1081 41.6233C28.9898 41.4964 28.8821 41.3618 28.759 41.2386C28.6388 41.1183 28.5078 41.0148 28.3838 40.8997L23.2051 35.7238L40.3517 18.5822C43.5341 15.3978 48.6068 15.2929 51.6584 18.3451C54.709 21.3957 54.6029 26.4657 51.4212 29.6471L34.2756 46.7885ZM60.0855 64.912L45.3077 50.1361L51.6433 43.8005L66.4194 58.5765L60.0855 64.912Z" fill="#7BB661"/>
<path d="M69.5793 57.5231L66.7509 60.3515L66.7509 60.3515L69.5793 57.5231ZM52.6967 40.6407L55.5251 37.8123L55.5251 37.8123L52.6967 40.6407ZM50.5903 40.6407L53.4187 43.4692L53.4192 43.4686L50.5903 40.6407ZM48.1674 43.0636L45.339 45.892L48.1674 48.7204L50.9958 45.892L48.1674 43.0636ZM45.1918 40.0879L42.3637 37.2592L39.5346 40.0876L42.3634 42.9164L45.1918 40.0879ZM53.5282 31.7535L56.3563 34.5822L56.3564 34.5822L53.5282 31.7535ZM53.7654 16.2384L50.9365 19.0664L50.9367 19.0666L53.7654 16.2384ZM38.246 16.4756L41.0739 19.3046L41.0748 19.3036L38.246 16.4756ZM29.9112 24.8073L27.0828 27.6358L29.9107 30.4636L32.7391 27.6363L29.9112 24.8073ZM26.9355 21.8317L24.1075 19.0029L21.2783 21.8313L24.1071 24.6601L26.9355 21.8317ZM29.358 19.4099L32.186 22.2387L32.1864 22.2384L29.358 19.4099ZM29.358 17.3031L32.1875 14.4757L32.1864 14.4746L29.358 17.3031ZM12.4737 0.419033L15.3021 -2.40941L15.3021 -2.40941L12.4737 0.419033ZM10.3673 0.419033L7.53888 -2.40941L7.53864 -2.40916L10.3673 0.419033ZM1.92676 8.86096L4.75517 11.6894L4.75542 11.6892L1.92676 8.86096ZM1.92676 10.9674L4.75528 8.13902L4.75465 8.1384L1.92676 10.9674ZM18.808 27.8497L15.9795 30.678L15.9796 30.6782L18.808 27.8497ZM20.9149 27.8497L18.0869 25.0208L18.0865 25.0213L20.9149 27.8497ZM24.8289 23.937L27.6573 21.1086L24.8293 18.2807L22.0009 21.1081L24.8289 23.937ZM27.805 26.9131L30.6329 29.742L33.4624 26.9136L30.6334 24.0846L27.805 26.9131ZM20.0457 34.6695L17.2178 31.8406L17.2173 31.8411L20.0457 34.6695ZM20.0457 36.7764L17.2162 39.6037L17.2173 39.6048L20.0457 36.7764ZM20.5923 37.323L20.1508 41.2986L31.4833 42.557L23.4207 34.4945L20.5923 37.323ZM9.37576 41.238L6.54774 38.4092L6.54735 38.4096L9.37576 41.238ZM9.37576 43.3448L6.54628 46.1722L6.54728 46.1732L9.37576 43.3448ZM26.6534 60.6231L23.8249 63.4515L23.825 63.4516L26.6534 60.6231ZM28.7603 60.6231L25.9322 57.7943L25.9318 57.7947L28.7603 60.6231ZM32.6851 49.4095L35.5135 46.581L27.4741 38.5418L28.7087 49.8438L32.6851 49.4095ZM33.2236 49.948L36.0521 47.1196L36.052 47.1196L33.2236 49.948ZM35.3305 49.948L32.5024 47.1193L32.5021 47.1196L35.3305 49.948ZM43.0864 42.1941L45.9148 39.3657L43.0868 36.5377L40.2583 39.3653L43.0864 42.1941ZM46.0625 45.1702L48.8909 47.9986L51.7194 45.1702L48.8909 42.3417L46.0625 45.1702ZM42.1498 49.0829L39.3214 46.2544L42.1498 49.0829ZM42.1498 51.1897L39.3203 54.017L39.3215 54.0183L42.1498 51.1897ZM59.034 68.072L61.8624 65.2436L61.8623 65.2435L59.034 68.072ZM61.1409 68.072L63.9682 70.9016L63.9695 70.9002L61.1409 68.072ZM69.5814 59.6301L72.4101 62.4583L72.4155 62.4529L69.5814 59.6301ZM19.861 24.6907L17.0325 27.5191L19.8605 30.3472L22.689 27.5197L19.861 24.6907ZM5.08618 9.91479L2.25744 7.08668L-0.57025 9.915L2.25765 12.7431L5.08618 9.91479ZM11.4203 3.57927L14.2488 0.750926L11.4201 -2.07799L8.59155 0.751156L11.4203 3.57927ZM26.1971 18.3569L29.025 21.1858L31.8543 18.3575L29.0256 15.5286L26.1971 18.3569ZM27.6339 57.3908L24.8055 60.2192L28.0513 63.4652L30.8227 59.8057L27.6339 57.3908ZM12.6081 42.3645L10.1986 39.1717L6.52827 41.9415L9.77963 45.1929L12.6081 42.3645ZM26.4376 43.1664L29.2655 40.3374L29.2284 40.3003L29.1904 40.2643L26.4376 43.1664ZM27.0044 43.7329L29.9655 41.0437L29.9006 40.9722L29.8323 40.9039L27.0044 43.7329ZM34.2756 46.7885L31.4478 49.6175L34.2759 52.4443L37.1037 49.6172L34.2756 46.7885ZM29.1081 41.6233L26.1813 44.3498L26.2299 44.402L26.2803 44.4524L29.1081 41.6233ZM28.759 41.2386L25.9281 44.0646L25.9306 44.0671L28.759 41.2386ZM28.3838 40.8997L25.5562 43.7289L25.6084 43.7812L25.6626 43.8315L28.3838 40.8997ZM23.2051 35.7238L20.3771 32.895L17.547 35.7242L20.3774 38.553L23.2051 35.7238ZM40.3517 18.5822L43.1798 21.4111L43.1811 21.4097L40.3517 18.5822ZM51.6584 18.3451L48.8297 21.1732L48.8299 21.1735L51.6584 18.3451ZM51.4212 29.6471L54.2493 32.4759L54.2495 32.4756L51.4212 29.6471ZM60.0855 64.912L57.2573 67.7406L60.0861 70.5691L62.9143 67.7401L60.0855 64.912ZM45.3077 50.1361L42.4793 47.3076L39.6507 50.1362L42.4795 52.9647L45.3077 50.1361ZM51.6433 43.8005L54.4717 40.9721L51.6433 38.1437L48.8149 40.9721L51.6433 43.8005ZM66.4194 58.5765L69.2482 61.4046L72.076 58.5761L69.2479 55.7481L66.4194 58.5765ZM69.5793 57.5231L72.4077 54.6946L55.5251 37.8123L52.6967 40.6407L49.8683 43.4692L66.7509 60.3515L69.5793 57.5231ZM52.6967 40.6407L55.5251 37.8123C53.3813 35.6685 49.9057 35.6677 47.7614 37.8128L50.5903 40.6407L53.4192 43.4686C52.4386 44.4497 50.8481 44.4489 49.8683 43.4692L52.6967 40.6407ZM50.5903 40.6407L47.7619 37.8123L45.339 40.2351L48.1674 43.0636L50.9958 45.892L53.4187 43.4692L50.5903 40.6407ZM48.1674 43.0636L50.9958 40.2351L48.0202 37.2595L45.1918 40.0879L42.3634 42.9164L45.339 45.892L48.1674 43.0636ZM45.1918 40.0879L48.0199 42.9167L56.3563 34.5822L53.5282 31.7535L50.7002 28.9247L42.3637 37.2592L45.1918 40.0879ZM53.5282 31.7535L56.3564 34.5822C62.1803 28.7595 62.4486 19.2659 56.5941 13.4103L53.7654 16.2384L50.9367 19.0666C53.5067 21.637 53.5626 26.0629 50.7001 28.9248L53.5282 31.7535ZM53.7654 16.2384L56.5943 13.4105C50.7381 7.55231 41.2412 7.82188 35.4171 13.6476L38.246 16.4756L41.0748 19.3036C43.9388 16.4388 48.3666 16.4956 50.9365 19.0664L53.7654 16.2384ZM38.246 16.4756L35.418 13.6467L27.0833 21.9784L29.9112 24.8073L32.7391 27.6363L41.0739 19.3046L38.246 16.4756ZM29.9112 24.8073L32.7396 21.9789L29.7639 19.0033L26.9355 21.8317L24.1071 24.6601L27.0828 27.6358L29.9112 24.8073ZM26.9355 21.8317L29.7636 24.6605L32.186 22.2387L29.358 19.4099L26.5299 16.5811L24.1075 19.0029L26.9355 21.8317ZM29.358 19.4099L32.1864 22.2384C33.2141 21.2106 33.7944 19.8155 33.7944 18.3565H29.7944H25.7944C25.7944 17.6894 26.0601 17.0509 26.5296 16.5815L29.358 19.4099ZM29.7944 18.3565H33.7944C33.7944 16.8976 33.2143 15.5033 32.1875 14.4757L29.358 17.3031L26.5285 20.1305C26.0604 19.662 25.7944 19.024 25.7944 18.3565H29.7944ZM29.358 17.3031L32.1864 14.4746L15.3021 -2.40941L12.4737 0.419033L9.64531 3.24748L26.5296 20.1315L29.358 17.3031ZM12.4737 0.419033L15.3021 -2.40941C13.1813 -4.5302 9.6597 -4.5302 7.53888 -2.40941L10.3673 0.419033L13.1957 3.24748C12.6351 3.80804 11.9603 4 11.4205 4C10.8807 4 10.2059 3.80804 9.64531 3.24748L12.4737 0.419033ZM10.3673 0.419033L7.53864 -2.40916L-0.9019 6.03276L1.92676 8.86096L4.75542 11.6892L13.196 3.24723L10.3673 0.419033ZM1.92676 8.86096L-0.901651 6.03251C-3.04552 8.17635 -3.04626 11.652 -0.901136 13.7963L1.92676 10.9674L4.75465 8.1384C5.73571 9.11909 5.73497 10.7096 4.75517 11.6894L1.92676 8.86096ZM1.92676 10.9674L-0.901758 13.7957L15.9795 30.678L18.808 27.8497L21.6366 25.0214L4.75528 8.13902L1.92676 10.9674ZM18.808 27.8497L15.9796 30.6782C17.0507 31.7492 18.4623 32.2861 19.8615 32.2861V28.2861V24.2861C20.498 24.2861 21.1474 24.5323 21.6365 25.0213L18.808 27.8497ZM19.8615 28.2861V32.2861C21.2601 32.2861 22.6721 31.7494 23.7433 30.6782L20.9149 27.8497L18.0865 25.0213C18.5757 24.5321 19.225 24.2861 19.8615 24.2861V28.2861ZM20.9149 27.8497L23.7428 30.6786L27.6568 26.7659L24.8289 23.937L22.0009 21.1081L18.0869 25.0208L20.9149 27.8497ZM24.8289 23.937L22.0005 26.7655L24.9766 29.7415L27.805 26.9131L30.6334 24.0846L27.6573 21.1086L24.8289 23.937ZM27.805 26.9131L24.9771 24.0841L17.2178 31.8406L20.0457 34.6695L22.8736 37.4985L30.6329 29.742L27.805 26.9131ZM20.0457 34.6695L17.2173 31.8411C16.1895 32.8689 15.6092 34.264 15.6092 35.723H19.6092H23.6092C23.6092 36.3901 23.3435 37.0285 22.8741 37.498L20.0457 34.6695ZM19.6092 35.723H15.6092C15.6092 37.1819 16.1893 38.5761 17.2162 39.6037L20.0457 36.7764L22.8751 33.949C23.3433 34.4175 23.6092 35.0555 23.6092 35.723H19.6092ZM20.0457 36.7764L17.2173 39.6048L17.7639 40.1515L20.5923 37.323L23.4207 34.4945L22.8741 33.9479L20.0457 36.7764ZM20.5923 37.323L21.0338 33.3474C15.8889 32.7761 10.5098 34.4482 6.54774 38.4092L9.37576 41.238L12.2038 44.0668C14.3621 41.9091 17.2981 40.9818 20.1508 41.2986L20.5923 37.323ZM9.37576 41.238L6.54735 38.4096C5.5196 39.4373 4.93934 40.8324 4.93934 42.2914H8.93934H12.9393C12.9393 42.9586 12.6736 43.597 12.2042 44.0664L9.37576 41.238ZM8.93934 42.2914H4.93934C4.93934 43.7503 5.51945 45.1446 6.54628 46.1722L9.37576 43.3448L12.2052 40.5175C12.6734 40.9859 12.9393 41.6239 12.9393 42.2914H8.93934ZM9.37576 43.3448L6.54728 46.1732L23.8249 63.4515L26.6534 60.6231L29.4819 57.7948L12.2042 40.5165L9.37576 43.3448ZM26.6534 60.6231L23.825 63.4516C24.8961 64.5226 26.3077 65.0595 27.7068 65.0595V61.0595V57.0595C28.3433 57.0595 28.9928 57.3057 29.4818 57.7947L26.6534 60.6231ZM27.7068 61.0595V65.0595C29.106 65.0595 30.5176 64.5226 31.5887 63.4516L28.7603 60.6231L25.9318 57.7947C26.4209 57.3057 27.0703 57.0595 27.7068 57.0595V61.0595ZM28.7603 60.6231L31.5883 63.4519C34.9275 60.1136 36.7747 55.654 36.7747 50.9315H32.7747H28.7747C28.7747 53.5325 27.7702 55.9568 25.9322 57.7943L28.7603 60.6231ZM32.7747 50.9315H36.7747C36.7747 50.2394 36.7278 49.5833 36.6614 48.9751L32.6851 49.4095L28.7087 49.8438C28.7521 50.2408 28.7747 50.5982 28.7747 50.9315H32.7747ZM32.6851 49.4095L29.8567 52.2379L30.3952 52.7765L33.2236 49.948L36.052 47.1196L35.5135 46.581L32.6851 49.4095ZM33.2236 49.948L30.3952 52.7765C31.4663 53.8475 32.8779 54.3845 34.2771 54.3845V50.3845V46.3845C34.9136 46.3845 35.5631 46.6306 36.0521 47.1196L33.2236 49.948ZM34.2771 50.3845V54.3845C35.6757 54.3845 37.0877 53.8477 38.1589 52.7765L35.3305 49.948L32.5021 47.1196C32.9913 46.6304 33.6406 46.3845 34.2771 46.3845V50.3845ZM35.3305 49.948L38.1586 52.7768L45.9145 45.0229L43.0864 42.1941L40.2583 39.3653L32.5024 47.1193L35.3305 49.948ZM43.0864 42.1941L40.258 45.0226L43.2341 47.9986L46.0625 45.1702L48.8909 42.3417L45.9148 39.3657L43.0864 42.1941ZM46.0625 45.1702L43.2341 42.3417L39.3214 46.2544L42.1498 49.0829L44.9782 51.9113L48.8909 47.9986L46.0625 45.1702ZM42.1498 49.0829L39.3214 46.2544C38.2936 47.2821 37.7133 48.6772 37.7133 50.1363H41.7133H45.7133C45.7133 50.8034 45.4476 51.4419 44.9782 51.9113L42.1498 49.0829ZM41.7133 50.1363H37.7133C37.7133 51.5957 38.2937 52.9897 39.3203 54.017L42.1498 51.1897L44.9793 48.3623C45.4471 48.8305 45.7133 49.4687 45.7133 50.1363H41.7133ZM42.1498 51.1897L39.3215 54.0183L56.2058 70.9006L59.034 68.072L61.8623 65.2435L44.978 48.3611L42.1498 51.1897ZM59.034 68.072L56.2056 70.9005C57.2342 71.9291 58.6305 72.5085 60.0875 72.5085V68.5085V64.5085C60.7542 64.5085 61.3921 64.7733 61.8624 65.2436L59.034 68.072ZM60.0875 68.5085V72.5085C61.5443 72.5085 62.9398 71.9292 63.9682 70.9016L61.1409 68.072L58.3135 65.2425C58.7828 64.7736 59.4203 64.5085 60.0875 64.5085V68.5085ZM61.1409 68.072L63.9695 70.9002L72.4101 62.4583L69.5814 59.6301L66.7528 56.8019L58.3122 65.2438L61.1409 68.072ZM69.5814 59.6301L72.4155 62.4529C74.5505 60.3093 74.5513 56.8382 72.4077 54.6946L69.5793 57.5231L66.7509 60.3515C65.7714 59.372 65.7721 57.7865 66.7473 56.8074L69.5814 59.6301ZM19.861 24.6907L22.6896 21.8624L7.91472 7.08647L5.08618 9.91479L2.25765 12.7431L17.0325 27.5191L19.861 24.6907ZM5.08618 9.91479L7.91493 12.7429L14.249 6.40738L11.4203 3.57927L8.59155 0.751156L2.25744 7.08668L5.08618 9.91479ZM11.4203 3.57927L8.59178 6.40761L23.3686 21.1853L26.1971 18.3569L29.0256 15.5286L14.2488 0.750926L11.4203 3.57927ZM26.1971 18.3569L23.3691 15.528L17.0331 21.8618L19.861 24.6907L22.689 27.5197L29.025 21.1858L26.1971 18.3569ZM29.7942 50.9315H25.7942C25.7942 52.4254 25.3184 53.8229 24.4451 54.9759L27.6339 57.3908L30.8227 59.8057C32.7524 57.2576 33.7942 54.1629 33.7942 50.9315H29.7942ZM27.6339 57.3908L30.4624 54.5624L15.4366 39.5362L12.6081 42.3645L9.77963 45.1929L24.8055 60.2192L27.6339 57.3908ZM12.6081 42.3645L15.0176 45.5574C17.5913 43.6152 21.2782 43.7856 23.6849 46.0685L26.4376 43.1664L29.1904 40.2643C23.9332 35.2775 15.8785 34.8854 10.1986 39.1717L12.6081 42.3645ZM26.4376 43.1664L23.6098 45.9953L24.1765 46.5619L27.0044 43.7329L29.8323 40.9039L29.2655 40.3374L26.4376 43.1664ZM27.0044 43.7329L24.0433 46.4221C25.1792 47.6729 25.7942 49.2488 25.7942 50.9315H29.7942H33.7942C33.7942 47.2348 32.4214 43.748 29.9655 41.0437L27.0044 43.7329ZM34.2756 46.7885L37.1034 43.9594L31.9358 38.7943L29.1081 41.6233L26.2803 44.4524L31.4478 49.6175L34.2756 46.7885ZM29.1081 41.6233L32.0349 38.8968C32.0381 38.9003 32.0344 38.8964 32.0173 38.8771C31.9902 38.8464 31.9863 38.8417 31.9388 38.7877C31.8729 38.7128 31.7448 38.5676 31.5874 38.4102L28.759 41.2386L25.9306 44.0671C25.8964 44.0329 25.8836 44.0165 25.9319 44.0714C25.9435 44.0845 25.9539 44.0965 25.9706 44.1155C25.9856 44.1326 26.0044 44.1541 26.0246 44.1769C26.0648 44.2224 26.1189 44.2829 26.1813 44.3498L29.1081 41.6233ZM28.759 41.2386L31.5899 38.4127C31.4283 38.2509 31.2797 38.1206 31.2051 38.0554C31.1495 38.0068 31.1489 38.0066 31.1182 37.9796C31.1004 37.9639 31.0989 37.9623 31.105 37.968L28.3838 40.8997L25.6626 43.8315C25.7308 43.8947 25.7921 43.9492 25.8375 43.989C25.8603 44.0091 25.8817 44.0277 25.8983 44.0422C25.9169 44.0584 25.9282 44.0683 25.9406 44.079C25.9925 44.1244 25.9695 44.106 25.9281 44.0646L28.759 41.2386ZM28.3838 40.8997L31.2115 38.0705L26.0327 32.8946L23.2051 35.7238L20.3774 38.553L25.5562 43.7289L28.3838 40.8997ZM23.2051 35.7238L26.0331 38.5527L43.1798 21.4111L40.3517 18.5822L37.5237 15.7534L20.3771 32.895L23.2051 35.7238ZM40.3517 18.5822L43.1811 21.4097C44.9132 19.6764 47.4501 19.7934 48.8297 21.1732L51.6584 18.3451L54.4871 15.5169C49.7635 10.7924 42.1549 11.1192 37.5224 15.7547L40.3517 18.5822ZM51.6584 18.3451L48.8299 21.1735C50.2079 22.5514 50.3253 25.0863 48.5929 26.8185L51.4212 29.6471L54.2495 32.4756C58.8805 27.845 59.2102 20.24 54.4868 15.5166L51.6584 18.3451ZM51.4212 29.6471L48.5931 26.8183L31.4475 43.9597L34.2756 46.7885L37.1037 49.6172L54.2493 32.4759L51.4212 29.6471ZM60.0855 64.912L62.9138 62.0834L48.136 47.3074L45.3077 50.1361L42.4795 52.9647L57.2573 67.7406L60.0855 64.912ZM45.3077 50.1361L48.1361 52.9645L54.4717 46.629L51.6433 43.8005L48.8149 40.9721L42.4793 47.3076L45.3077 50.1361ZM51.6433 43.8005L48.8149 46.629L63.591 61.4049L66.4194 58.5765L69.2479 55.7481L54.4717 40.9721L51.6433 43.8005ZM66.4194 58.5765L63.5907 55.7484L57.2568 62.0839L60.0855 64.912L62.9143 67.7401L69.2482 61.4046L66.4194 58.5765Z" fill="#7BB661" mask="url(#path-1-inside-1_1010_70)"/>
<mask id="path-3-inside-2_1010_70" fill="white">
<path d="M18.3124 64.3903C16.6161 66.0866 14.3605 67.0206 11.9609 67.0206C9.562 67.0206 7.3072 66.0868 5.61092 64.3903C3.91399 62.694 2.97926 60.4376 2.97926 58.0389C2.97926 55.6402 3.91399 53.3835 5.61092 51.6874C6.19295 51.1054 6.19295 50.1629 5.61092 49.5811C5.02888 48.999 4.08631 48.999 3.50449 49.5811C1.24461 51.8403 0 54.8443 0 58.0391C0 61.2337 1.24461 64.2379 3.50449 66.4971C5.7631 68.7563 8.76653 70.0003 11.9611 70.0003C15.1566 70.0003 18.16 68.7563 20.4193 66.4971C21.0013 65.9151 21.0013 64.9725 20.4193 64.3907C19.837 63.8085 18.8944 63.8085 18.3124 64.3903Z"/>
</mask>
<path d="M18.3124 64.3903C16.6161 66.0866 14.3605 67.0206 11.9609 67.0206C9.562 67.0206 7.3072 66.0868 5.61092 64.3903C3.91399 62.694 2.97926 60.4376 2.97926 58.0389C2.97926 55.6402 3.91399 53.3835 5.61092 51.6874C6.19295 51.1054 6.19295 50.1629 5.61092 49.5811C5.02888 48.999 4.08631 48.999 3.50449 49.5811C1.24461 51.8403 0 54.8443 0 58.0391C0 61.2337 1.24461 64.2379 3.50449 66.4971C5.7631 68.7563 8.76653 70.0003 11.9611 70.0003C15.1566 70.0003 18.16 68.7563 20.4193 66.4971C21.0013 65.9151 21.0013 64.9725 20.4193 64.3907C19.837 63.8085 18.8944 63.8085 18.3124 64.3903Z" fill="#7BB661"/>
<path d="M18.3124 64.3903L15.4845 61.5613L15.484 61.5618L18.3124 64.3903ZM5.61092 64.3903L8.4395 61.562L8.4388 61.5613L5.61092 64.3903ZM5.61092 51.6874L8.43862 54.5166L8.43933 54.5159L5.61092 51.6874ZM5.61092 49.5811L2.78251 52.4095L2.78302 52.41L5.61092 49.5811ZM3.50449 49.5811L6.3325 52.4099L6.33342 52.409L3.50449 49.5811ZM3.50449 66.4971L6.3333 63.6691L6.3325 63.6683L3.50449 66.4971ZM20.4193 66.4971L17.5909 63.6687L20.4193 66.4971ZM20.4193 64.3907L17.5909 67.2191L17.5914 67.2197L20.4193 64.3907ZM18.3124 64.3903L15.484 61.5618C14.5382 62.5077 13.3 63.0206 11.9609 63.0206V67.0206V71.0206C15.4209 71.0206 18.6941 69.6654 21.1408 67.2187L18.3124 64.3903ZM11.9609 67.0206V63.0206C10.6228 63.0206 9.38552 62.5081 8.4395 61.562L5.61092 64.3903L2.78233 67.2186C5.22889 69.6654 8.50122 71.0206 11.9609 71.0206V67.0206ZM5.61092 64.3903L8.4388 61.5613C7.49239 60.6153 6.97926 59.3765 6.97926 58.0389H2.97926H-1.02074C-1.02074 61.4986 0.335593 64.7728 2.78304 67.2193L5.61092 64.3903ZM2.97926 58.0389H6.97926C6.97926 56.7011 7.49248 55.4623 8.43862 54.5166L5.61092 51.6874L2.78321 48.8583C0.335498 51.3048 -1.02074 54.5792 -1.02074 58.0389H2.97926ZM5.61092 51.6874L8.43933 54.5159C10.5832 52.372 10.5839 48.8964 8.43881 46.7521L5.61092 49.5811L2.78302 52.41C1.80196 51.4293 1.8027 49.8388 2.78251 48.859L5.61092 51.6874ZM5.61092 49.5811L8.43933 46.7526C6.29548 44.6088 2.81988 44.608 0.675566 46.7531L3.50449 49.5811L6.33342 52.409C5.35274 53.39 3.76228 53.3893 2.78251 52.4095L5.61092 49.5811ZM3.50449 49.5811L0.676479 46.7522C-2.33369 49.7615 -4 53.7831 -4 58.0391H0H4C4 55.9055 4.82291 53.919 6.3325 52.4099L3.50449 49.5811ZM0 58.0391H-4C-4 62.2948 -2.33371 66.3166 0.676479 69.326L3.50449 66.4971L6.3325 63.6683C4.82293 62.1591 4 60.1725 4 58.0391H0ZM3.50449 66.4971L0.675683 69.3252C3.68468 72.335 7.70577 74.0003 11.9611 74.0003V70.0003V66.0003C9.82728 66.0003 7.84152 65.1777 6.3333 63.6691L3.50449 66.4971ZM11.9611 70.0003V74.0003C16.2173 74.0003 20.2382 72.335 23.2477 69.3256L20.4193 66.4971L17.5909 63.6687C16.0819 65.1776 14.0959 66.0003 11.9611 66.0003V70.0003ZM20.4193 66.4971L23.2477 69.3256C25.3915 67.1817 25.3923 63.7061 23.2472 61.5617L20.4193 64.3907L17.5914 67.2197C16.6103 66.239 16.6111 64.6485 17.5909 63.6687L20.4193 66.4971ZM20.4193 64.3907L23.2477 61.5623C21.1038 59.4184 17.629 59.4177 15.4845 61.5613L18.3124 64.3903L21.1403 67.2192C20.1599 68.1993 18.5703 68.1985 17.5909 67.2191L20.4193 64.3907Z" fill="#7BB661" mask="url(#path-3-inside-2_1010_70)"/>
<mask id="path-5-inside-3_1010_70" fill="white">
<path d="M11.2702 52.5576C10.6881 51.9756 9.74555 51.9756 9.16373 52.5576C8.05817 53.6632 7.44922 55.1324 7.44922 56.6962C7.44922 58.2588 8.05817 59.7293 9.16373 60.8348C10.3051 61.9754 11.8043 62.5455 13.3024 62.5455C14.8005 62.5455 16.2999 61.9754 17.4404 60.8348C18.0225 60.2528 18.0225 59.3103 17.4404 58.7284C16.8584 58.1464 15.9158 58.1464 15.334 58.7284C14.2138 59.8501 12.3903 59.8486 11.2702 58.7284C10.7276 58.1858 10.4287 57.4629 10.4287 56.6962C10.4287 55.9283 10.7276 55.2066 11.2702 54.664C11.8518 54.082 11.8518 53.1396 11.2702 52.5576Z"/>
</mask>
<path d="M11.2702 52.5576C10.6881 51.9756 9.74555 51.9756 9.16373 52.5576C8.05817 53.6632 7.44922 55.1324 7.44922 56.6962C7.44922 58.2588 8.05817 59.7293 9.16373 60.8348C10.3051 61.9754 11.8043 62.5455 13.3024 62.5455C14.8005 62.5455 16.2999 61.9754 17.4404 60.8348C18.0225 60.2528 18.0225 59.3103 17.4404 58.7284C16.8584 58.1464 15.9158 58.1464 15.334 58.7284C14.2138 59.8501 12.3903 59.8486 11.2702 58.7284C10.7276 58.1858 10.4287 57.4629 10.4287 56.6962C10.4287 55.9283 10.7276 55.2066 11.2702 54.664C11.8518 54.082 11.8518 53.1396 11.2702 52.5576Z" fill="#7BB661"/>
<path d="M11.2702 52.5576L14.0996 49.7302L14.0986 49.7292L11.2702 52.5576ZM9.16373 52.5576L11.9921 55.3861L11.9927 55.3855L9.16373 52.5576ZM9.16373 60.8348L6.33532 63.6633L6.33637 63.6643L9.16373 60.8348ZM17.4404 60.8348L14.612 58.0064L17.4404 60.8348ZM17.4404 58.7284L14.612 61.5569L14.6125 61.5574L17.4404 58.7284ZM15.334 58.7284L12.5051 55.9005L12.5037 55.9019L15.334 58.7284ZM11.2702 54.664L14.0986 57.4925L14.0996 57.4914L11.2702 54.664ZM11.2702 52.5576L14.0986 49.7292C11.9547 47.5854 8.47912 47.5846 6.33481 49.7297L9.16373 52.5576L11.9927 55.3855C11.012 56.3666 9.42152 56.3658 8.44175 55.3861L11.2702 52.5576ZM9.16373 52.5576L6.33532 49.7292C4.47996 51.5845 3.44922 54.071 3.44922 56.6962H7.44922H11.4492C11.4492 56.1938 11.6364 55.7418 11.9921 55.3861L9.16373 52.5576ZM7.44922 56.6962H3.44922C3.44922 59.3197 4.47964 61.8076 6.33532 63.6633L9.16373 60.8348L11.9921 58.0064C11.6367 57.651 11.4492 57.1978 11.4492 56.6962H7.44922ZM9.16373 60.8348L6.33637 63.6643C8.26048 65.587 10.791 66.5455 13.3024 66.5455V62.5455V58.5455C12.8175 58.5455 12.3498 58.3637 11.9911 58.0053L9.16373 60.8348ZM13.3024 62.5455V66.5455C15.8133 66.5455 18.3449 65.5872 20.2688 63.6633L17.4404 60.8348L14.612 58.0064C14.2549 58.3635 13.7877 58.5455 13.3024 58.5455V62.5455ZM17.4404 60.8348L20.2688 63.6633C22.4127 61.5194 22.4134 58.0438 20.2683 55.8995L17.4404 58.7284L14.6125 61.5574C13.6315 60.5767 13.6322 58.9862 14.612 58.0064L17.4404 60.8348ZM17.4404 58.7284L20.2688 55.9C18.125 53.7562 14.6494 53.7554 12.5051 55.9005L15.334 58.7284L18.1629 61.5564C17.1823 62.5374 15.5918 62.5366 14.612 61.5569L17.4404 58.7284ZM15.334 58.7284L12.5037 55.9019C12.9484 55.4566 13.659 55.4605 14.0986 55.9L11.2702 58.7284L8.44175 61.5569C11.1217 64.2368 15.4792 64.2436 18.1643 61.555L15.334 58.7284ZM11.2702 58.7284L14.0986 55.9C14.3073 56.1087 14.4287 56.4036 14.4287 56.6962H10.4287H6.42869C6.42869 58.5221 7.14782 60.263 8.44175 61.5569L11.2702 58.7284ZM10.4287 56.6962H14.4287C14.4287 56.9885 14.3066 57.2844 14.0986 57.4925L11.2702 54.664L8.44175 51.8356C7.14848 53.1288 6.42869 54.8682 6.42869 56.6962H10.4287ZM11.2702 54.664L14.0996 57.4914C16.242 55.3475 16.242 51.8741 14.0996 49.7302L11.2702 52.5576L8.44072 55.385C7.46158 54.4052 7.46158 52.8164 8.44072 51.8366L11.2702 54.664Z" fill="#7BB661" mask="url(#path-5-inside-3_1010_70)"/>
</svg>
