<svg width="71" height="70" viewBox="0 0 71 70" fill="none" xmlns="http://www.w3.org/2000/svg">
<path d="M11.0742 1.12598C11.2424 0.957815 11.5984 0.957877 11.7666 1.12598L28.6504 18.0098C28.7429 18.1023 28.7939 18.2265 28.7939 18.3564C28.7939 18.454 28.7652 18.5481 28.7119 18.6279L28.6504 18.7031L26.2285 21.124L25.5215 21.832L29.9111 26.2217L30.6182 25.5146L38.9531 17.1826C42.9272 13.2075 49.2563 13.1417 53.0586 16.9453C56.8601 20.7476 56.794 27.0737 52.8213 31.0459L44.4844 39.3809L43.7773 40.0879L48.167 44.4775L48.875 43.7705L51.2979 41.3477C51.489 41.1567 51.7977 41.1564 51.9893 41.3477L68.8721 58.2305C69.0632 58.4217 69.0638 58.7309 68.874 58.9229L60.4336 67.3643C60.3414 67.4564 60.2171 67.5087 60.0879 67.5088C59.9583 67.5088 59.833 67.4569 59.7412 67.3652L42.8564 50.4824H42.8574C42.765 50.3899 42.713 50.2666 42.7129 50.1367C42.7129 50.0067 42.7646 49.882 42.8564 49.79L47.4766 45.1699L43.0869 40.7803L42.3799 41.4873L34.623 49.2412C34.5272 49.3369 34.4038 49.3847 34.2773 49.3848C34.1505 49.3848 34.0267 49.3372 33.9307 49.2412L33.3926 48.7021L31.3818 46.6924L31.6914 49.5176C31.7434 49.9937 31.7744 50.4638 31.7744 50.9316C31.7744 54.328 30.4545 57.5157 28.0537 59.916H28.0527C27.9568 60.0118 27.8337 60.0595 27.707 60.0596C27.5802 60.0596 27.4564 60.012 27.3604 59.916L10.083 42.6377C9.99065 42.5452 9.93945 42.4208 9.93945 42.291C9.93956 42.161 9.99112 42.0372 10.083 41.9453C12.9176 39.1116 16.7694 37.9044 20.4814 38.3164L23.3154 38.6318L20.7529 36.0693L20.6914 35.9941C20.6381 35.9142 20.6094 35.8199 20.6094 35.7227C20.6095 35.5926 20.661 35.4689 20.7529 35.377L28.5117 27.6201L29.2197 26.9131L28.5117 26.2061L25.5361 23.2295L24.8291 22.5225L24.1221 23.2295L20.208 27.1426C20.1121 27.2385 19.988 27.2861 19.8613 27.2861C19.7346 27.2861 19.6116 27.2384 19.5156 27.1426L2.63379 10.2607V10.2598C2.44274 10.0686 2.44245 9.7599 2.63379 9.56836L11.0742 1.12598ZM50.9365 43.0938L44.6006 49.4287L43.8936 50.1357L44.6006 50.8428L59.3789 65.6191L60.0859 66.3262L60.793 65.6191L67.127 59.2832L67.834 58.5762L67.127 57.8691L52.3506 43.0938L51.6436 42.3867L50.9365 43.0938ZM26.7266 42.0791C22.5382 38.4525 16.3798 38.2657 12.0059 41.5664L11.0879 42.2588L11.9014 43.0713L26.9268 58.0977L27.7383 58.9092L28.4307 57.9941C29.9641 55.9692 30.7939 53.5114 30.7939 50.9316C30.7939 47.9903 29.7059 45.2197 27.7451 43.0605L27.7285 43.043L27.126 42.4404L26.7266 42.0791ZM52.3652 17.6377C49.0042 14.2763 43.5441 14.322 39.9834 17.5527L39.6445 17.875L22.498 35.0166L21.791 35.7236L22.498 36.4307L27.6768 41.6074L27.6904 41.6201L27.7031 41.6328C27.7795 41.7037 27.8616 41.7736 27.915 41.8203C27.9753 41.8729 28.0161 41.9106 28.0508 41.9453H28.0518C28.0894 41.9829 28.1297 42.0275 28.1846 42.0898C28.2335 42.1455 28.3042 42.2276 28.376 42.3047L28.3887 42.3184L28.4014 42.3311L33.5684 47.4961L34.2754 48.2021L34.9824 47.4961L52.1279 30.3545C55.6719 26.8108 55.8341 21.1065 52.3652 17.6377ZM10.7129 2.87207L4.37891 9.20801L3.67188 9.91504L19.8613 26.1045L20.5684 25.3984L26.9043 19.0645L27.6113 18.3574L26.9043 17.6494L11.4199 2.16504L10.7129 2.87207Z" stroke="white" stroke-width="2"/>
<path d="M4.21191 50.2881C4.40312 50.0969 4.71274 50.0965 4.9043 50.2881C5.09542 50.4792 5.09567 50.7889 4.9043 50.9805C3.01968 52.8641 1.97949 55.3751 1.97949 58.0391C1.97954 60.7026 3.01928 63.213 4.90332 65.0967V65.0977C6.78718 66.9817 9.29682 68.0205 11.9609 68.0205C14.6255 68.0205 17.1356 66.9815 19.0195 65.0977C19.2109 64.9064 19.5201 64.906 19.7119 65.0977C19.9032 65.2888 19.9035 65.5985 19.7119 65.79C17.6402 67.8616 14.8912 69 11.9609 69C9.21467 69 6.62658 67.9999 4.60742 66.168L4.21191 65.79L3.83398 65.3936C2.00131 63.3737 1 60.7853 1 58.0391C1 55.2927 2.0013 52.7044 3.83398 50.6846L4.21191 50.2881Z" stroke="white" stroke-width="2"/>
<path d="M9.87109 53.2646C10.062 53.0737 10.3709 53.0729 10.5625 53.2637V53.2646C10.7539 53.4562 10.7539 53.7655 10.5625 53.957C9.83244 54.6873 9.42871 55.6635 9.42871 56.6963C9.42873 57.7277 9.83305 58.7051 10.5635 59.4355C12.0736 60.9454 14.5306 60.9489 16.042 59.4355L16.041 59.4346C16.2083 59.2675 16.4662 59.2474 16.6562 59.373L16.7334 59.4355C16.9247 59.6267 16.925 59.9364 16.7334 60.1279C15.7888 61.0725 14.5475 61.5458 13.3027 61.5459C12.0582 61.5459 10.8167 61.0726 9.87109 60.1279C8.95307 59.2099 8.44923 57.9936 8.44922 56.6963C8.44922 55.4791 8.89147 54.3351 9.70312 53.4404L9.87109 53.2646Z" stroke="white" stroke-width="2"/>
</svg>
