<svg width="49" height="17" viewBox="0 0 49 17" fill="none" xmlns="http://www.w3.org/2000/svg">
<path d="M24.5 0C38.031 0 49 3.80558 49 8.5C49 13.1944 38.031 17 24.5 17C10.969 17 0 13.1944 0 8.5C0 3.80558 10.969 0 24.5 0ZM24.5186 5.03809C23.8333 5.03809 23.2421 5.19663 22.7461 5.51367C22.2528 5.82815 21.8719 6.28734 21.6035 6.89062C21.3377 7.49139 21.2038 8.22252 21.2012 9.08398C21.1986 9.94549 21.3312 10.6833 21.5996 11.2969C21.8681 11.9079 22.2501 12.3778 22.7461 12.7051C23.2421 13.0298 23.8333 13.1914 24.5186 13.1914C25.2061 13.1914 25.7967 13.031 26.29 12.709C26.7861 12.3843 27.1681 11.9144 27.4365 11.3008C27.705 10.6871 27.8398 9.94818 27.8398 9.08398C27.8424 8.225 27.7089 7.49398 27.4404 6.89062C27.172 6.28723 26.7886 5.82816 26.29 5.51367C25.7941 5.19671 25.2036 5.03811 24.5186 5.03809ZM32.1758 5.03809C31.4906 5.03809 30.8993 5.19663 30.4033 5.51367C29.9099 5.82816 29.5292 6.28728 29.2607 6.89062C28.9949 7.4914 28.861 8.22248 28.8584 9.08398C28.8558 9.94553 28.9884 10.6833 29.2568 11.2969C29.5253 11.908 29.9073 12.3778 30.4033 12.7051C30.8993 13.0298 31.4906 13.1914 32.1758 13.1914C32.8633 13.1913 33.4539 13.031 33.9473 12.709C34.4433 12.3843 34.8253 11.9144 35.0938 11.3008C35.3622 10.6872 35.4971 9.94815 35.4971 9.08398C35.4996 8.22502 35.3661 7.49397 35.0977 6.89062C34.8292 6.28722 34.4458 5.82816 33.9473 5.51367C33.4513 5.19668 32.8608 5.03814 32.1758 5.03809ZM39.832 5.03809C39.147 5.03815 38.5565 5.19669 38.0605 5.51367C37.5671 5.82816 37.1864 6.28723 36.918 6.89062C36.6521 7.49142 36.5172 8.22245 36.5146 9.08398C36.5121 9.94556 36.6456 10.6833 36.9141 11.2969C37.1825 11.908 37.5645 12.3778 38.0605 12.7051C38.5564 13.0297 39.1471 13.1913 39.832 13.1914C40.5198 13.1914 41.111 13.0311 41.6045 12.709C42.1005 12.3843 42.4825 11.9144 42.751 11.3008C43.0194 10.6872 43.1533 9.94812 43.1533 9.08398C43.1559 8.22506 43.0233 7.49395 42.7549 6.89062C42.4864 6.28727 42.103 5.82816 41.6045 5.51367C41.1085 5.19663 40.5173 5.03809 39.832 5.03809ZM9.52539 5.03809C9.00129 5.0381 8.51172 5.12768 8.05664 5.30664C7.60414 5.4856 7.20549 5.74901 6.86035 6.09668C6.51774 6.44441 6.25036 6.86898 6.05859 7.37012C5.8669 7.86859 5.77053 8.43984 5.77051 9.08398C5.77051 9.91239 5.92905 10.629 6.24609 11.2324C6.56309 11.8331 7.00579 12.2954 7.57324 12.6201C8.14086 12.9448 8.79968 13.1074 9.54883 13.1074C10.2237 13.1074 10.8209 12.9735 11.3398 12.7051C11.8614 12.4366 12.2698 12.0509 12.5664 11.5498C12.8655 11.0488 13.0156 10.4471 13.0156 9.74414V8.7041H9.62891V10.0889H11.1846C11.1787 10.3551 11.1171 10.5879 10.998 10.7871C10.8728 10.9967 10.6891 11.1594 10.4463 11.2744C10.2059 11.3869 9.9112 11.4434 9.56348 11.4434C9.1699 11.4433 8.83464 11.3497 8.55859 11.1631C8.28257 10.9764 8.07148 10.7049 7.92578 10.3496C7.78017 9.99435 7.70804 9.56491 7.70801 9.06152C7.70801 8.56048 7.78279 8.13443 7.93359 7.78418C8.08444 7.43135 8.2981 7.16261 8.57422 6.97852C8.85282 6.79449 9.18268 6.70221 9.56348 6.70215C9.75268 6.70215 9.92741 6.72546 10.0859 6.77148C10.2443 6.81495 10.3852 6.87994 10.5078 6.9668C10.6305 7.05369 10.734 7.15995 10.8184 7.28516C10.9027 7.40782 10.9663 7.54997 11.0098 7.71094H12.9316C12.8856 7.31987 12.7673 6.96097 12.5781 6.63379C12.3889 6.30652 12.1422 6.02392 11.8379 5.78613C11.5362 5.54838 11.1886 5.36379 10.7949 5.2334C10.4038 5.10303 9.98045 5.03809 9.52539 5.03809ZM14.1348 5.14551V13H16.0332V10.3115H17.0049L18.4414 13H20.5127L18.8838 10.0117C19.3166 9.81244 19.6516 9.5252 19.8877 9.14941C20.1254 8.76848 20.2441 8.30526 20.2441 7.76074C20.2441 7.22395 20.1272 6.76025 19.8945 6.36914C19.6619 5.9754 19.3309 5.67352 18.9014 5.46387C18.4744 5.25172 17.9669 5.14551 17.3789 5.14551H14.1348ZM24.5186 6.58008C24.7921 6.58012 25.0309 6.67104 25.2354 6.85254C25.4399 7.03407 25.5998 7.30998 25.7148 7.68066C25.8299 8.04878 25.8877 8.51652 25.8877 9.08398C25.8903 9.95075 25.7648 10.5944 25.5117 11.0137C25.2586 11.4302 24.9275 11.6386 24.5186 11.6387C24.2475 11.6387 24.0079 11.5464 23.8008 11.3623C23.5938 11.1757 23.4334 10.8929 23.3184 10.5146C23.2059 10.1362 23.1508 9.65927 23.1533 9.08398C23.1559 8.23525 23.2827 7.60632 23.5332 7.19727C23.7838 6.78578 24.1121 6.58008 24.5186 6.58008ZM32.1758 6.58008C32.4492 6.58016 32.6881 6.67109 32.8926 6.85254C33.097 7.03408 33.257 7.31004 33.3721 7.68066C33.4871 8.04877 33.5449 8.51655 33.5449 9.08398C33.5475 9.95075 33.4221 10.5944 33.1689 11.0137C32.9159 11.4302 32.5847 11.6385 32.1758 11.6387C31.9048 11.6387 31.6651 11.5464 31.458 11.3623C31.251 11.1757 31.0896 10.893 30.9746 10.5146C30.8622 10.1363 30.808 9.65916 30.8105 9.08398C30.8131 8.23532 30.939 7.60632 31.1895 7.19727C31.44 6.78562 31.7692 6.58008 32.1758 6.58008ZM39.832 6.58008C40.1056 6.58008 40.3453 6.67101 40.5498 6.85254C40.7542 7.03408 40.9143 7.31011 41.0293 7.68066C41.1443 8.04876 41.2012 8.51658 41.2012 9.08398C41.2037 9.95075 41.0793 10.5944 40.8262 11.0137C40.5731 11.4304 40.2411 11.6387 39.832 11.6387C39.5612 11.6386 39.3222 11.5463 39.1152 11.3623C38.9081 11.1757 38.7469 10.893 38.6318 10.5146C38.5194 10.1363 38.4642 9.65919 38.4668 9.08398C38.4694 8.23526 38.5961 7.60632 38.8467 7.19727C39.0972 6.78576 39.4257 6.58022 39.832 6.58008ZM16.9688 6.67578C17.2525 6.67578 17.4913 6.71706 17.6855 6.79883C17.8799 6.87809 18.0272 6.9981 18.127 7.15918C18.2266 7.3176 18.2763 7.51808 18.2764 7.76074C18.2764 8.00364 18.2267 8.20341 18.127 8.35938C18.0272 8.51278 17.8799 8.6274 17.6855 8.7041C17.4938 8.7782 17.255 8.81543 16.9688 8.81543H16.0332V6.67578H16.9688Z" fill="white"/>
</svg>
