<svg width="469" height="126" viewBox="0 0 469 126" fill="none" xmlns="http://www.w3.org/2000/svg">
<g filter="url(#filter0_d_956_355)">
<path d="M359.987 10.1193C350.104 18.476 344.661 24.645 342.007 29.4436C345.524 36.3337 355.144 34.4644 358.586 33.4537C357.795 33.2871 357.107 33.0272 356.755 32.4658C357.487 31.643 360.72 31.4813 362.607 29.7667C361.734 29.7867 361.306 29.7089 360.775 29.1862C362.673 28.0621 364.749 26.9913 365.797 25.6128C365.099 25.7831 364.479 26.0818 363.419 25.6603C365.026 24.2511 366.802 23.0179 367.975 21.1599C367.021 21.3558 366.002 21.6055 365.625 21.3263C367.064 19.9015 368.214 18.4212 369.095 16.8887C367.805 17.3548 367.213 17.3468 366.839 17.1902C367.808 15.6009 369.162 14.1355 369.559 12.3613C368.651 12.9276 367.78 13.2655 367.015 12.9174C367.222 11.8477 368.938 10.8487 369.478 8.33584C368.464 8.67584 367.392 9.05494 367.12 8.88013C367.151 6.81169 367.723 5.52099 368.27 4.19431C366.043 4.67401 362.688 5.492 362.797 5.26982L363.847 3.55374C361.544 3.47232 359.482 4.66035 357.986 5.53397C357.132 5.13181 357.702 4.2422 358.414 3.30358C356.628 3.97406 355.06 4.78135 353.69 5.7109C352.718 5.17253 353.877 4.14183 354.352 3.26959C351.629 4.46538 350.598 5.50109 349.574 6.53586C348.512 5.90519 349.169 5.00904 349.589 4.14983C347.625 5.43839 346.756 6.71762 345.825 7.99695C345.307 7.55688 344.61 7.3076 345.048 5.85652C343.726 7.0845 342.816 8.38214 342.234 9.73513C341.153 9.35387 341.345 8.44663 341.166 7.69308C339.878 9.34407 339.189 10.9436 338.266 12.5634C337.977 12.4404 337.619 11.8803 337.204 10.9586C334.27 15.4878 331.056 25.9311 339.646 27.7944C344.982 20.849 351.945 15.0903 359.988 10.119L359.987 10.1193Z" fill="#75A928"/>
<path d="M13.2946 108.75C13.2946 108.001 13.092 107.428 12.6867 107.029C12.2815 106.631 11.5499 106.243 10.4922 105.865C9.43437 105.487 8.62386 105.092 8.06062 104.68C7.50426 104.261 7.08526 103.787 6.80364 103.258C6.52889 102.723 6.39152 102.111 6.39152 101.424C6.39152 100.236 6.78647 99.2572 7.57638 98.4879C8.37315 97.7186 9.41377 97.334 10.6982 97.334C11.5774 97.334 12.3605 97.5332 13.0473 97.9316C13.7342 98.3231 14.2631 98.8691 14.634 99.5698C15.0049 100.27 15.1904 101.04 15.1904 101.878H13.2946C13.2946 100.95 13.0714 100.233 12.6249 99.7243C12.1784 99.216 11.5362 98.9619 10.6982 98.9619C9.93579 98.9619 9.34508 99.1748 8.92608 99.6007C8.50709 100.027 8.29759 100.624 8.29759 101.393C8.29759 102.025 8.52426 102.554 8.9776 102.98C9.43094 103.406 10.1315 103.787 11.0794 104.124C12.5562 104.611 13.6106 105.212 14.2425 105.927C14.8813 106.641 15.2007 107.575 15.2007 108.729C15.2007 109.945 14.8057 110.92 14.0158 111.655C13.2259 112.383 12.151 112.747 10.7909 112.747C9.91861 112.747 9.11154 112.559 8.36972 112.181C7.63476 111.796 7.05435 111.26 6.62849 110.573C6.20949 109.88 6 109.086 6 108.193H7.89577C7.89577 109.121 8.15335 109.842 8.66851 110.357C9.19053 110.872 9.89801 111.13 10.7909 111.13C11.6221 111.13 12.2471 110.917 12.6661 110.491C13.0851 110.065 13.2946 109.485 13.2946 108.75Z" fill="white"/>
<path d="M22.0519 112.748C20.6644 112.748 19.5998 112.335 18.858 111.511C18.1161 110.68 17.7383 109.464 17.7246 107.864V106.514C17.7246 104.852 18.0852 103.55 18.8064 102.609C19.5345 101.661 20.5477 101.188 21.8459 101.188C23.1509 101.188 24.1263 101.603 24.7719 102.434C25.4176 103.265 25.7473 104.56 25.761 106.318V107.514H19.538V107.771C19.538 108.966 19.7612 109.835 20.2077 110.378C20.661 110.921 21.3101 111.192 22.1549 111.192C22.6907 111.192 23.1612 111.092 23.5665 110.893C23.9786 110.687 24.3632 110.364 24.7204 109.925L25.6683 111.078C24.8784 112.191 23.6729 112.748 22.0519 112.748ZM21.8459 102.754C21.0903 102.754 20.5305 103.015 20.1664 103.537C19.8024 104.052 19.5963 104.855 19.5483 105.948H23.9374V105.7C23.8893 104.642 23.697 103.887 23.3604 103.434C23.0307 102.98 22.5259 102.754 21.8459 102.754Z" fill="white"/>
<path d="M30.5829 112.541H28.7593V101.393H30.5829V112.541ZM30.7272 98.4364C30.7272 98.7455 30.6413 99.0031 30.4696 99.2092C30.2979 99.4152 30.0369 99.5182 29.6866 99.5182C29.3431 99.5182 29.0855 99.4152 28.9138 99.2092C28.7421 99.0031 28.6562 98.7455 28.6562 98.4364C28.6562 98.1273 28.7421 97.8663 28.9138 97.6534C29.0855 97.4404 29.3431 97.334 29.6866 97.334C30.03 97.334 30.2876 97.4439 30.4593 97.6637C30.6379 97.8766 30.7272 98.1342 30.7272 98.4364Z" fill="white"/>
<path d="M39.5153 109.688C39.5153 109.296 39.3676 108.959 39.0723 108.678C38.7769 108.396 38.2068 108.067 37.3619 107.689C36.3797 107.284 35.686 106.937 35.2807 106.648C34.8823 106.36 34.5835 106.033 34.3843 105.669C34.1852 105.298 34.0856 104.859 34.0856 104.351C34.0856 103.444 34.4153 102.692 35.0747 102.094C35.7409 101.49 36.5892 101.188 37.6195 101.188C38.7048 101.188 39.5771 101.503 40.2365 102.135C40.8959 102.767 41.2256 103.578 41.2256 104.567H39.4123C39.4123 104.066 39.244 103.64 38.9074 103.289C38.5708 102.932 38.1416 102.754 37.6195 102.754C37.0838 102.754 36.6613 102.894 36.3522 103.176C36.05 103.451 35.8989 103.822 35.8989 104.289C35.8989 104.66 36.0088 104.958 36.2286 105.185C36.4553 105.412 36.9945 105.711 37.8462 106.081C39.1993 106.61 40.1197 107.129 40.6074 107.637C41.0951 108.139 41.3389 108.777 41.3389 109.554C41.3389 110.522 41.0058 111.298 40.3395 111.882C39.6733 112.459 38.7803 112.748 37.6607 112.748C36.4999 112.748 35.5589 112.414 34.8377 111.748C34.1165 111.082 33.7559 110.237 33.7559 109.214H35.5898C35.6104 109.832 35.7993 110.316 36.1565 110.666C36.5137 111.017 37.0151 111.192 37.6607 111.192C38.2652 111.192 38.7254 111.058 39.0414 110.79C39.3573 110.515 39.5153 110.148 39.5153 109.688Z" fill="white"/>
<path d="M46.0795 101.394L46.1207 102.424C46.8007 101.6 47.697 101.188 48.8098 101.188C50.053 101.188 50.9219 101.727 51.4165 102.805C52.1171 101.727 53.0924 101.188 54.3426 101.188C56.3963 101.188 57.4472 102.469 57.4953 105.031V112.542H55.682V105.206C55.682 104.395 55.5377 103.794 55.2492 103.403C54.9607 103.004 54.4731 102.805 53.7862 102.805C53.2367 102.805 52.7902 103.018 52.4468 103.444C52.1033 103.87 51.9041 104.412 51.8492 105.072V112.542H50.0152V105.123C49.9946 103.578 49.3661 102.805 48.1298 102.805C47.2094 102.805 46.5603 103.265 46.1825 104.186V112.542H44.3691V101.394H46.0795Z" fill="white"/>
<path d="M62.8525 112.541H61.0288V101.393H62.8525V112.541ZM62.9967 98.4364C62.9967 98.7455 62.9108 99.0031 62.7391 99.2092C62.5674 99.4152 62.3064 99.5182 61.9561 99.5182C61.6127 99.5182 61.3551 99.4152 61.1834 99.2092C61.0116 99.0031 60.9258 98.7455 60.9258 98.4364C60.9258 98.1273 61.0116 97.8663 61.1834 97.6534C61.3551 97.4404 61.6127 97.334 61.9561 97.334C62.2995 97.334 62.5571 97.4439 62.7288 97.6637C62.9074 97.8766 62.9967 98.1342 62.9967 98.4364Z" fill="white"/>
<path d="M70.239 111.192C70.8435 111.192 71.3277 111.006 71.6918 110.635C72.0558 110.258 72.255 109.722 72.2893 109.028H74.01C73.9688 110.1 73.5876 110.989 72.8663 111.697C72.152 112.397 71.2762 112.748 70.239 112.748C68.8584 112.748 67.8041 112.315 67.076 111.449C66.3548 110.577 65.9941 109.282 65.9941 107.565V106.339C65.9941 104.656 66.3548 103.379 67.076 102.506C67.7972 101.627 68.8481 101.188 70.2287 101.188C71.3689 101.188 72.2722 101.548 72.9384 102.269C73.6116 102.991 73.9687 103.976 74.01 105.226H72.2893C72.2482 104.402 72.049 103.784 71.6918 103.372C71.3415 102.96 70.8538 102.754 70.2287 102.754C69.4182 102.754 68.8172 103.021 68.4257 103.557C68.0342 104.086 67.8315 104.958 67.8178 106.174V107.596C67.8178 108.908 68.0101 109.835 68.3948 110.378C68.7863 110.921 69.401 111.192 70.239 111.192Z" fill="white"/>
<path d="M83.8405 112.542H81.9551V97.541H83.8405V112.542Z" fill="white"/>
<path d="M89.2694 101.394L89.3209 102.599C90.0284 101.658 90.9317 101.188 92.0307 101.188C94.002 101.188 95.0014 102.503 95.0289 105.134V112.542H93.2155V105.216C93.2155 104.344 93.0678 103.725 92.7725 103.361C92.484 102.991 92.0478 102.805 91.464 102.805C91.0107 102.805 90.602 102.956 90.2379 103.258C89.8807 103.561 89.5923 103.956 89.3725 104.443V112.542H87.5488V101.394H89.2694Z" fill="white"/>
<path d="M100.82 98.6953V101.395H102.499V102.868H100.82V109.781C100.82 110.221 100.892 110.554 101.036 110.781C101.181 111.008 101.428 111.121 101.778 111.121C102.019 111.121 102.262 111.08 102.51 110.997L102.489 112.543C102.077 112.68 101.655 112.749 101.222 112.749C100.501 112.749 99.9511 112.491 99.5733 111.976C99.1955 111.461 99.0067 110.733 99.0067 109.792V102.868H97.3066V101.395H99.0067V98.6953H100.82Z" fill="white"/>
<path d="M109.3 112.748C107.912 112.748 106.848 112.335 106.106 111.511C105.364 110.68 104.986 109.464 104.973 107.864V106.514C104.973 104.852 105.333 103.55 106.054 102.609C106.783 101.661 107.796 101.188 109.094 101.188C110.399 101.188 111.374 101.603 112.02 102.434C112.666 103.265 112.995 104.56 113.009 106.318V107.514H106.786V107.771C106.786 108.966 107.009 109.835 107.456 110.378C107.909 110.921 108.558 111.192 109.403 111.192C109.939 111.192 110.409 111.092 110.815 110.893C111.227 110.687 111.611 110.364 111.968 109.925L112.916 111.078C112.126 112.191 110.921 112.748 109.3 112.748ZM109.094 102.754C108.338 102.754 107.779 103.015 107.414 103.537C107.05 104.052 106.844 104.855 106.796 105.948H111.185V105.7C111.137 104.642 110.945 103.887 110.608 103.434C110.279 102.98 109.774 102.754 109.094 102.754Z" fill="white"/>
<path d="M117.83 112.542H116.006V96.7168H117.83V112.542Z" fill="white"/>
<path d="M123.312 112.542H121.488V96.7168H123.312V112.542Z" fill="white"/>
<path d="M128.792 112.541H126.968V101.393H128.792V112.541ZM128.936 98.4364C128.936 98.7455 128.85 99.0031 128.679 99.2092C128.507 99.4152 128.246 99.5182 127.896 99.5182C127.552 99.5182 127.295 99.4152 127.123 99.2092C126.951 99.0031 126.865 98.7455 126.865 98.4364C126.865 98.1273 126.951 97.8663 127.123 97.6534C127.295 97.4404 127.552 97.334 127.896 97.334C128.239 97.334 128.497 97.4439 128.668 97.6637C128.847 97.8766 128.936 98.1342 128.936 98.4364Z" fill="white"/>
<path d="M131.945 106.463C131.945 104.725 132.261 103.413 132.893 102.527C133.525 101.634 134.449 101.188 135.665 101.188C136.798 101.188 137.66 101.672 138.251 102.64L138.344 101.394H139.992V112.645C139.992 114.025 139.638 115.083 138.931 115.818C138.223 116.56 137.238 116.931 135.974 116.931C135.424 116.931 134.806 116.793 134.119 116.519C133.439 116.251 132.928 115.918 132.584 115.519L133.326 114.262C134.081 115.004 134.916 115.375 135.83 115.375C137.348 115.375 138.127 114.547 138.168 112.892V111.439C137.578 112.311 136.74 112.748 135.654 112.748C134.5 112.748 133.601 112.315 132.955 111.449C132.309 110.577 131.973 109.327 131.945 107.699V106.463ZM133.769 107.503C133.769 108.753 133.951 109.674 134.315 110.265C134.686 110.848 135.29 111.14 136.128 111.14C137.035 111.14 137.715 110.677 138.168 109.749V104.175C137.694 103.262 137.021 102.805 136.149 102.805C135.311 102.805 134.707 103.1 134.336 103.691C133.965 104.275 133.776 105.175 133.769 106.391V107.503Z" fill="white"/>
<path d="M147.339 112.748C145.952 112.748 144.887 112.335 144.145 111.511C143.403 110.68 143.025 109.464 143.012 107.864V106.514C143.012 104.852 143.372 103.55 144.094 102.609C144.822 101.661 145.835 101.188 147.133 101.188C148.438 101.188 149.413 101.603 150.059 102.434C150.705 103.265 151.034 104.56 151.048 106.318V107.514H144.825V107.771C144.825 108.966 145.048 109.835 145.495 110.378C145.948 110.921 146.597 111.192 147.442 111.192C147.978 111.192 148.448 111.092 148.854 110.893C149.266 110.687 149.65 110.364 150.008 109.925L150.955 111.078C150.166 112.191 148.96 112.748 147.339 112.748ZM147.133 102.754C146.377 102.754 145.818 103.015 145.454 103.537C145.09 104.052 144.883 104.855 144.835 105.948H149.224V105.7C149.176 104.642 148.984 103.887 148.648 103.434C148.318 102.98 147.813 102.754 147.133 102.754Z" fill="white"/>
<path d="M155.621 101.394L155.673 102.599C156.38 101.658 157.283 101.188 158.382 101.188C160.354 101.188 161.353 102.503 161.38 105.134V112.542H159.567V105.216C159.567 104.344 159.419 103.725 159.124 103.361C158.836 102.991 158.399 102.805 157.816 102.805C157.362 102.805 156.954 102.956 156.589 103.258C156.232 103.561 155.944 103.956 155.724 104.443V112.542H153.9V101.394H155.621Z" fill="white"/>
<path d="M168.655 111.192C169.259 111.192 169.744 111.006 170.108 110.635C170.472 110.258 170.671 109.722 170.705 109.028H172.426C172.385 110.1 172.004 110.989 171.282 111.697C170.568 112.397 169.692 112.748 168.655 112.748C167.274 112.748 166.22 112.315 165.492 111.449C164.771 110.577 164.41 109.282 164.41 107.565V106.339C164.41 104.656 164.771 103.379 165.492 102.506C166.213 101.627 167.264 101.188 168.645 101.188C169.785 101.188 170.688 101.548 171.354 102.269C172.028 102.991 172.385 103.976 172.426 105.226H170.705C170.664 104.402 170.465 103.784 170.108 103.372C169.757 102.96 169.27 102.754 168.645 102.754C167.834 102.754 167.233 103.021 166.842 103.557C166.45 104.086 166.248 104.958 166.234 106.174V107.596C166.234 108.908 166.426 109.835 166.811 110.378C167.202 110.921 167.817 111.192 168.655 111.192Z" fill="white"/>
<path d="M179.194 112.748C177.807 112.748 176.742 112.335 176.001 111.511C175.259 110.68 174.881 109.464 174.867 107.864V106.514C174.867 104.852 175.228 103.55 175.949 102.609C176.677 101.661 177.69 101.188 178.988 101.188C180.293 101.188 181.269 101.603 181.915 102.434C182.56 103.265 182.89 104.56 182.904 106.318V107.514H176.681V107.771C176.681 108.966 176.904 109.835 177.35 110.378C177.804 110.921 178.453 111.192 179.298 111.192C179.833 111.192 180.304 111.092 180.709 110.893C181.121 110.687 181.506 110.364 181.863 109.925L182.811 111.078C182.021 112.191 180.816 112.748 179.194 112.748ZM178.988 102.754C178.233 102.754 177.673 103.015 177.309 103.537C176.945 104.052 176.739 104.855 176.691 105.948H181.08V105.7C181.032 104.642 180.84 103.887 180.503 103.434C180.173 102.98 179.668 102.754 178.988 102.754Z" fill="white"/>
<path d="M185.779 115.529L184.697 114.788C185.343 113.888 185.679 112.961 185.707 112.006V110.285H187.572V111.779C187.572 112.473 187.4 113.167 187.057 113.86C186.72 114.554 186.294 115.11 185.779 115.529Z" fill="white"/>
<path d="M196.207 112.542V102.867H194.754V101.394H196.207V100.106C196.227 98.9727 196.512 98.0901 197.062 97.4582C197.618 96.8194 198.401 96.5 199.411 96.5C199.775 96.5 200.142 96.5584 200.513 96.6752L200.421 98.2206C200.16 98.1588 199.881 98.1279 199.586 98.1279C198.549 98.1279 198.03 98.8663 198.03 100.343V101.394H199.936V102.867H198.03V112.542H196.207Z" fill="white"/>
<path d="M207.344 103.104C207.09 103.056 206.815 103.032 206.52 103.032C205.585 103.032 204.933 103.543 204.562 104.567V112.542H202.738V101.394H204.51L204.541 102.527C205.029 101.634 205.719 101.188 206.612 101.188C206.901 101.188 207.141 101.236 207.333 101.332L207.344 103.104Z" fill="white"/>
<path d="M209.238 106.452C209.238 104.831 209.63 103.55 210.413 102.609C211.203 101.661 212.243 101.188 213.535 101.188C214.826 101.188 215.863 101.648 216.646 102.568C217.436 103.489 217.841 104.742 217.862 106.329V107.503C217.862 109.117 217.47 110.395 216.687 111.336C215.904 112.277 214.86 112.748 213.555 112.748C212.264 112.748 211.227 112.291 210.444 111.377C209.668 110.464 209.266 109.227 209.238 107.668V106.452ZM211.062 107.503C211.062 108.65 211.285 109.554 211.732 110.213C212.185 110.866 212.793 111.192 213.555 111.192C215.163 111.192 215.99 110.031 216.038 107.709V106.452C216.038 105.312 215.812 104.412 215.358 103.753C214.905 103.087 214.297 102.754 213.535 102.754C212.786 102.754 212.185 103.087 211.732 103.753C211.285 104.412 211.062 105.309 211.062 106.442V107.503Z" fill="white"/>
<path d="M222.591 101.394L222.632 102.424C223.312 101.6 224.209 101.188 225.321 101.188C226.565 101.188 227.434 101.727 227.928 102.805C228.629 101.727 229.604 101.188 230.854 101.188C232.908 101.188 233.959 102.469 234.007 105.031V112.542H232.194V105.206C232.194 104.395 232.049 103.794 231.761 103.403C231.472 103.004 230.985 102.805 230.298 102.805C229.748 102.805 229.302 103.018 228.958 103.444C228.615 103.87 228.416 104.412 228.361 105.072V112.542H226.527V105.123C226.506 103.578 225.878 102.805 224.641 102.805C223.721 102.805 223.072 103.265 222.694 104.186V112.542H220.881V101.394H222.591Z" fill="white"/>
<path d="M247.01 106.474H244.372V112.542H242.477V97.541H246.68C248.15 97.541 249.263 97.9257 250.018 98.695C250.774 99.4574 251.152 100.577 251.152 102.054C251.152 102.981 250.946 103.792 250.534 104.485C250.128 105.172 249.551 105.691 248.803 106.041L251.708 112.419V112.542H249.678L247.01 106.474ZM244.372 104.856H246.66C247.45 104.856 248.078 104.602 248.545 104.094C249.019 103.586 249.256 102.906 249.256 102.054C249.256 100.131 248.384 99.1689 246.639 99.1689H244.372V104.856Z" fill="white"/>
<path d="M259.827 112.542C259.717 112.301 259.638 111.896 259.59 111.326C258.944 112.274 258.12 112.748 257.117 112.748C256.107 112.748 255.317 112.466 254.747 111.903C254.184 111.333 253.902 110.532 253.902 109.502C253.902 108.369 254.287 107.469 255.056 106.803C255.826 106.136 256.88 105.796 258.219 105.783H259.559V104.598C259.559 103.932 259.411 103.458 259.116 103.176C258.82 102.894 258.37 102.754 257.766 102.754C257.217 102.754 256.77 102.918 256.427 103.248C256.083 103.571 255.911 103.983 255.911 104.484H254.088C254.088 103.914 254.256 103.372 254.593 102.857C254.929 102.335 255.383 101.926 255.953 101.631C256.523 101.335 257.158 101.188 257.859 101.188C258.999 101.188 259.864 101.473 260.455 102.043C261.053 102.606 261.358 103.43 261.372 104.515V110.141C261.379 110.999 261.496 111.745 261.722 112.377V112.542H259.827ZM257.395 111.089C257.842 111.089 258.267 110.965 258.673 110.718C259.078 110.471 259.373 110.162 259.559 109.791V107.132H258.528C257.663 107.146 256.98 107.342 256.478 107.72C255.977 108.091 255.726 108.613 255.726 109.286C255.726 109.918 255.853 110.378 256.107 110.666C256.361 110.948 256.791 111.089 257.395 111.089Z" fill="white"/>
<path d="M270.265 109.688C270.265 109.296 270.118 108.959 269.822 108.678C269.527 108.396 268.957 108.067 268.112 107.689C267.13 107.284 266.436 106.937 266.031 106.648C265.632 106.36 265.334 106.033 265.134 105.669C264.935 105.298 264.836 104.859 264.836 104.351C264.836 103.444 265.165 102.692 265.825 102.094C266.491 101.49 267.339 101.188 268.37 101.188C269.455 101.188 270.327 101.503 270.987 102.135C271.646 102.767 271.976 103.578 271.976 104.567H270.162C270.162 104.066 269.994 103.64 269.657 103.289C269.321 102.932 268.892 102.754 268.37 102.754C267.834 102.754 267.411 102.894 267.102 103.176C266.8 103.451 266.649 103.822 266.649 104.289C266.649 104.66 266.759 104.958 266.979 105.185C267.205 105.412 267.744 105.711 268.596 106.081C269.949 106.61 270.87 107.129 271.357 107.637C271.845 108.139 272.089 108.777 272.089 109.554C272.089 110.522 271.756 111.298 271.09 111.882C270.423 112.459 269.53 112.748 268.411 112.748C267.25 112.748 266.309 112.414 265.588 111.748C264.866 111.082 264.506 110.237 264.506 109.214H266.34C266.36 109.832 266.549 110.316 266.906 110.666C267.264 111.017 267.765 111.192 268.411 111.192C269.015 111.192 269.475 111.058 269.791 110.79C270.107 110.515 270.265 110.148 270.265 109.688Z" fill="white"/>
<path d="M283.164 107.503C283.164 109.269 282.845 110.584 282.206 111.449C281.574 112.315 280.677 112.748 279.517 112.748C278.397 112.748 277.535 112.325 276.931 111.48V116.828H275.117V101.394H276.766L276.858 102.63C277.47 101.668 278.345 101.188 279.486 101.188C280.708 101.188 281.622 101.613 282.226 102.465C282.831 103.317 283.143 104.591 283.164 106.288V107.503ZM281.351 106.463C281.351 105.213 281.158 104.292 280.774 103.701C280.389 103.104 279.771 102.805 278.919 102.805C278.047 102.805 277.384 103.241 276.931 104.114V109.914C277.377 110.766 278.047 111.192 278.94 111.192C279.764 111.192 280.368 110.896 280.753 110.306C281.145 109.708 281.344 108.798 281.351 107.575V106.463Z" fill="white"/>
<path d="M294.27 107.504C294.27 109.242 293.958 110.55 293.333 111.43C292.708 112.309 291.801 112.748 290.613 112.748C289.431 112.748 288.545 112.24 287.955 111.224L287.862 112.542H286.203V96.7168H288.016V102.62C288.614 101.666 289.473 101.188 290.592 101.188C291.815 101.188 292.732 101.621 293.343 102.487C293.954 103.352 294.264 104.657 294.27 106.402V107.504ZM292.457 106.464C292.457 105.145 292.272 104.207 291.901 103.651C291.537 103.088 290.943 102.806 290.118 102.806C289.177 102.806 288.477 103.314 288.016 104.331V109.637C288.47 110.64 289.177 111.141 290.139 111.141C290.963 111.141 291.554 110.853 291.911 110.276C292.268 109.699 292.45 108.802 292.457 107.587V106.464Z" fill="white"/>
<path d="M301.267 112.748C299.879 112.748 298.815 112.335 298.073 111.511C297.331 110.68 296.953 109.464 296.939 107.864V106.514C296.939 104.852 297.3 103.55 298.021 102.609C298.749 101.661 299.763 101.188 301.061 101.188C302.366 101.188 303.341 101.603 303.987 102.434C304.632 103.265 304.962 104.56 304.976 106.318V107.514H298.753V107.771C298.753 108.966 298.976 109.835 299.423 110.378C299.876 110.921 300.525 111.192 301.37 111.192C301.906 111.192 302.376 111.092 302.781 110.893C303.193 110.687 303.578 110.364 303.935 109.925L304.883 111.078C304.093 112.191 302.888 112.748 301.267 112.748ZM301.061 102.754C300.305 102.754 299.745 103.015 299.381 103.537C299.017 104.052 298.811 104.855 298.763 105.948H303.152V105.7C303.104 104.642 302.912 103.887 302.575 103.434C302.246 102.98 301.741 102.754 301.061 102.754Z" fill="white"/>
<path d="M312.436 103.104C312.181 103.056 311.907 103.032 311.611 103.032C310.677 103.032 310.025 103.543 309.654 104.567V112.542H307.83V101.394H309.602L309.633 102.527C310.121 101.634 310.811 101.188 311.704 101.188C311.993 101.188 312.233 101.236 312.425 101.332L312.436 103.104Z" fill="white"/>
<path d="M319.523 103.104C319.269 103.056 318.995 103.032 318.699 103.032C317.765 103.032 317.113 103.543 316.742 104.567V112.542H314.918V101.394H316.69L316.721 102.527C317.209 101.634 317.899 101.188 318.792 101.188C319.08 101.188 319.321 101.236 319.513 101.332L319.523 103.104Z" fill="white"/>
<path d="M325.262 109.513L327.292 101.395H329.229L325.581 114.119C325.307 115.074 324.919 115.798 324.417 116.293C323.916 116.794 323.346 117.045 322.707 117.045C322.46 117.045 322.144 116.99 321.759 116.88V115.335L322.161 115.376C322.69 115.376 323.102 115.249 323.397 114.995C323.699 114.747 323.943 114.315 324.129 113.696L324.489 112.45L321.213 101.395H323.201L325.262 109.513Z" fill="white"/>
<path d="M338.863 98.6953V101.395H340.542V102.868H338.863V109.781C338.863 110.221 338.935 110.554 339.079 110.781C339.224 111.008 339.471 111.121 339.821 111.121C340.062 111.121 340.305 111.08 340.553 110.997L340.532 112.543C340.12 112.68 339.698 112.749 339.265 112.749C338.544 112.749 337.994 112.491 337.616 111.976C337.239 111.461 337.05 110.733 337.05 109.792V102.868H335.35V101.395H337.05V98.6953H338.863Z" fill="white"/>
<path d="M342.768 106.452C342.768 104.831 343.159 103.55 343.942 102.609C344.732 101.661 345.773 101.188 347.064 101.188C348.355 101.188 349.392 101.648 350.176 102.568C350.965 103.489 351.371 104.742 351.391 106.329V107.503C351.391 109.117 351 110.395 350.217 111.336C349.434 112.277 348.39 112.748 347.085 112.748C345.793 112.748 344.756 112.291 343.973 111.377C343.197 110.464 342.795 109.227 342.768 107.668V106.452ZM344.591 107.503C344.591 108.65 344.814 109.554 345.261 110.213C345.714 110.866 346.322 111.192 347.085 111.192C348.692 111.192 349.52 110.031 349.568 107.709V106.452C349.568 105.312 349.341 104.412 348.888 103.753C348.434 103.087 347.826 102.754 347.064 102.754C346.315 102.754 345.714 103.087 345.261 103.753C344.814 104.412 344.591 105.309 344.591 106.442V107.503Z" fill="white"/>
<path d="M363.383 105.073L366.454 97.541H368.586L364.321 106.948V112.542H362.435V106.948L358.17 97.541H360.313L363.383 105.073Z" fill="white"/>
<path d="M369.926 106.452C369.926 104.831 370.317 103.55 371.1 102.609C371.89 101.661 372.931 101.188 374.222 101.188C375.514 101.188 376.551 101.648 377.334 102.568C378.124 103.489 378.529 104.742 378.549 106.329V107.503C378.549 109.117 378.158 110.395 377.375 111.336C376.592 112.277 375.548 112.748 374.243 112.748C372.951 112.748 371.914 112.291 371.131 111.377C370.355 110.464 369.953 109.227 369.926 107.668V106.452ZM371.749 107.503C371.749 108.65 371.973 109.554 372.419 110.213C372.872 110.866 373.48 111.192 374.243 111.192C375.85 111.192 376.678 110.031 376.726 107.709V106.452C376.726 105.312 376.499 104.412 376.046 103.753C375.592 103.087 374.985 102.754 374.222 102.754C373.473 102.754 372.872 103.087 372.419 103.753C371.973 104.412 371.749 105.309 371.749 106.442V107.503Z" fill="white"/>
<path d="M387.246 111.564C386.641 112.354 385.758 112.749 384.598 112.749C383.588 112.749 382.826 112.402 382.31 111.708C381.795 111.007 381.534 109.991 381.527 108.658V101.395H383.341V108.524C383.341 110.262 383.863 111.131 384.907 111.131C386.013 111.131 386.775 110.636 387.194 109.647V101.395H389.018V112.542H387.287L387.246 111.564Z" fill="white"/>
<path d="M397.045 103.104C396.791 103.056 396.516 103.032 396.221 103.032C395.287 103.032 394.634 103.543 394.263 104.567V112.542H392.439V101.394H394.212L394.242 102.527C394.73 101.634 395.42 101.188 396.313 101.188C396.602 101.188 396.842 101.236 397.035 101.332L397.045 103.104Z" fill="white"/>
<path d="M414.426 112.542H412.531V105.608H406.493V112.542H404.607V97.541H406.493V103.991H412.531V97.541H414.426V112.542Z" fill="white"/>
<path d="M423.852 112.542C423.742 112.301 423.663 111.896 423.615 111.326C422.969 112.274 422.145 112.748 421.142 112.748C420.133 112.748 419.343 112.466 418.773 111.903C418.209 111.333 417.928 110.532 417.928 109.502C417.928 108.369 418.312 107.469 419.082 106.803C419.851 106.136 420.905 105.796 422.245 105.783H423.584V104.598C423.584 103.932 423.436 103.458 423.141 103.176C422.846 102.894 422.396 102.754 421.791 102.754C421.242 102.754 420.795 102.918 420.452 103.248C420.109 103.571 419.937 103.983 419.937 104.484H418.113C418.113 103.914 418.281 103.372 418.618 102.857C418.955 102.335 419.408 101.926 419.978 101.631C420.548 101.335 421.184 101.188 421.884 101.188C423.024 101.188 423.89 101.473 424.481 102.043C425.078 102.606 425.384 103.43 425.397 104.515V110.141C425.404 110.999 425.521 111.745 425.748 112.377V112.542H423.852ZM421.42 111.089C421.867 111.089 422.293 110.965 422.698 110.718C423.103 110.471 423.399 110.162 423.584 109.791V107.132H422.554C421.688 107.146 421.005 107.342 420.504 107.72C420.002 108.091 419.751 108.613 419.751 109.286C419.751 109.918 419.878 110.378 420.133 110.666C420.387 110.948 420.816 111.089 421.42 111.089Z" fill="white"/>
<path d="M430.592 101.394L430.643 102.599C431.351 101.658 432.254 101.188 433.353 101.188C435.324 101.188 436.324 102.503 436.351 105.134V112.542H434.538V105.216C434.538 104.344 434.39 103.725 434.095 103.361C433.806 102.991 433.37 102.805 432.786 102.805C432.333 102.805 431.924 102.956 431.56 103.258C431.203 103.561 430.915 103.956 430.695 104.443V112.542H428.871V101.394H430.592Z" fill="white"/>
<path d="M439.369 106.464C439.369 104.746 439.689 103.438 440.327 102.538C440.973 101.638 441.897 101.188 443.099 101.188C444.164 101.188 444.995 101.621 445.592 102.487V96.7168H447.416V112.542H445.747L445.654 111.347C445.056 112.281 444.201 112.748 443.089 112.748C441.935 112.748 441.028 112.302 440.369 111.409C439.716 110.509 439.383 109.242 439.369 107.607V106.464ZM441.193 107.504C441.193 108.754 441.378 109.675 441.749 110.265C442.12 110.849 442.725 111.141 443.563 111.141C444.469 111.141 445.146 110.684 445.592 109.771V104.145C445.125 103.252 444.452 102.806 443.573 102.806C442.735 102.806 442.13 103.101 441.759 103.692C441.389 104.276 441.2 105.176 441.193 106.391V107.504Z" fill="white"/>
<path d="M456.297 109.688C456.297 109.296 456.149 108.959 455.854 108.678C455.558 108.396 454.988 108.067 454.143 107.689C453.161 107.284 452.467 106.937 452.062 106.648C451.664 106.36 451.365 106.033 451.166 105.669C450.966 105.298 450.867 104.859 450.867 104.351C450.867 103.444 451.197 102.692 451.856 102.094C452.522 101.49 453.37 101.188 454.401 101.188C455.486 101.188 456.358 101.503 457.018 102.135C457.677 102.767 458.007 103.578 458.007 104.567H456.194C456.194 104.066 456.025 103.64 455.689 103.289C455.352 102.932 454.923 102.754 454.401 102.754C453.865 102.754 453.443 102.894 453.133 103.176C452.831 103.451 452.68 103.822 452.68 104.289C452.68 104.66 452.79 104.958 453.01 105.185C453.237 105.412 453.776 105.711 454.627 106.081C455.981 106.61 456.901 107.129 457.389 107.637C457.876 108.139 458.12 108.777 458.12 109.554C458.12 110.522 457.787 111.298 457.121 111.882C456.455 112.459 455.562 112.748 454.442 112.748C453.281 112.748 452.34 112.414 451.619 111.748C450.898 111.082 450.537 110.237 450.537 109.214H452.371C452.392 109.832 452.581 110.316 452.938 110.666C453.295 111.017 453.796 111.192 454.442 111.192C455.046 111.192 455.507 111.058 455.823 110.79C456.139 110.515 456.297 110.148 456.297 109.688Z" fill="white"/>
<path d="M26.8656 52.1432C29.7484 51.3116 32.0215 49.8701 33.5738 47.7634C35.1261 45.6567 35.9577 43.1065 35.9577 40.0018C35.9577 35.9547 34.5717 32.7392 31.7997 30.4107C29.0277 28.0822 25.2024 26.918 20.3236 26.918H6.4082V29.4682H20.3236C24.4262 29.4682 27.5863 30.4107 29.8039 32.2402C31.966 34.0697 33.0748 36.6754 33.0748 40.0018C33.0748 43.3837 31.966 45.9893 29.8039 47.8189C27.5863 49.6484 24.4262 50.5354 20.3236 50.5354H6.4082V65.726H9.23564V53.0302H20.3236C21.4324 53.0302 22.7076 52.9748 24.0936 52.753L33.352 65.726H36.5676L26.8656 52.1432Z" fill="#F18AA0" stroke="#F18AA0" stroke-width="3" stroke-miterlimit="2"/>
<path d="M45.4769 36.7874V65.7271H48.2489V36.7874H45.4769ZM45.2551 29.1367C45.6986 29.5802 46.1976 29.7465 46.8629 29.7465C47.4727 29.7465 48.0271 29.5247 48.4706 29.0812C48.9141 28.6377 49.1359 28.1387 49.1359 27.4735C49.1359 26.8636 48.9141 26.3647 48.4706 25.9211C48.0271 25.4776 47.4727 25.2559 46.8629 25.2559C46.1976 25.2559 45.6986 25.4776 45.2551 25.9211C44.8116 26.3647 44.5898 26.9191 44.5898 27.5289C44.5898 28.1942 44.8116 28.6931 45.2551 29.1367Z" fill="#EA738A" stroke="#EA738A" stroke-width="3" stroke-miterlimit="2"/>
<path d="M63.9225 64.0627C66.1401 65.3378 68.6349 65.9477 71.4623 65.9477C73.7908 65.9477 75.8975 65.5041 77.7825 64.6171C79.6674 63.7301 81.2198 62.3995 82.4394 60.6254L80.3882 59.1285C79.3348 60.57 78.0597 61.6788 76.5074 62.3995C74.955 63.1202 73.2918 63.4529 71.4623 63.4529C69.1893 63.4529 67.138 62.9539 65.3639 61.956C63.5898 60.9581 62.1484 59.5166 61.1505 57.6317C60.1526 55.8021 59.6536 53.6954 59.6536 51.2561C59.6536 48.8721 60.1526 46.7654 61.1505 44.8805C62.1484 43.0509 63.5898 41.6095 65.3639 40.6116C67.138 39.6137 69.1893 39.0593 71.4623 39.0593C73.2918 39.0593 74.955 39.4473 76.5074 40.1681C78.0597 40.8888 79.3348 41.9421 80.3882 43.3836L82.4394 41.8867C81.2198 40.1681 79.6674 38.8375 77.7825 37.9505C75.8975 37.0634 73.7908 36.5645 71.4623 36.5645C68.6349 36.5645 66.1401 37.2297 63.9225 38.4494C61.7049 39.6691 59.9308 41.4432 58.7111 43.6608C57.436 45.8784 56.8262 48.4286 56.8262 51.2561C56.8262 54.0835 57.436 56.6337 58.7111 58.8513C59.9308 61.0689 61.7049 62.843 63.9225 64.0627Z" fill="#E35D75" stroke="#E35D75" stroke-width="3" stroke-miterlimit="2"/>
<path d="M112.928 39.725C110.821 37.6182 107.938 36.5649 104.334 36.5649C101.673 36.5649 99.3449 37.1193 97.4045 38.2281C95.4086 39.3369 93.9672 40.8338 92.9693 42.8296V24.5898H90.1973V65.7263H92.9693V50.314C92.9693 46.8767 93.9118 44.1602 95.9076 42.1089C97.848 40.113 100.509 39.0597 103.946 39.0597C106.885 39.0597 109.158 39.9467 110.821 41.6099C112.484 43.3286 113.316 45.8234 113.316 49.0389V65.7263H116.088V48.8171C116.088 44.8809 115.034 41.8317 112.928 39.725Z" fill="#DC4760" stroke="#DC4760" stroke-width="3" stroke-miterlimit="2"/>
<path d="M141.914 63.8971L140.75 61.9567C139.53 63.0655 138.033 63.5645 136.259 63.5645C134.485 63.5645 133.099 63.121 132.212 62.123C131.325 61.1251 130.881 59.6837 130.881 57.7987V39.1709H140.084V36.787H130.881V30.4668H128.109V36.787H122.787V39.1709H128.109V58.0759C128.109 60.5707 128.775 62.5111 130.161 63.8971C131.491 65.2831 133.432 65.9484 135.982 65.9484C137.091 65.9484 138.199 65.7821 139.253 65.4494C140.306 65.1168 141.193 64.5624 141.914 63.8971Z" fill="#D5304B" stroke="#D5304B" stroke-width="3" stroke-miterlimit="2"/>
<path d="M165.636 62.4549C164.028 63.1202 162.254 63.4529 160.425 63.4529C157.431 63.4529 154.936 62.6767 152.829 61.1244C150.723 59.5721 149.281 57.4653 148.616 54.8042L173.065 50.0364C172.899 47.4861 172.289 45.2131 171.069 43.1618C169.849 41.1105 168.242 39.5028 166.246 38.3385C164.25 37.1743 161.977 36.5645 159.482 36.5645C156.766 36.5645 154.326 37.2297 152.22 38.4494C150.057 39.7245 148.394 41.4432 147.174 43.6608C145.955 45.8784 145.4 48.4286 145.4 51.2561C145.4 54.1389 146.01 56.6337 147.285 58.8513C148.56 61.0689 150.335 62.843 152.608 64.0627C154.881 65.3378 157.431 65.9477 160.369 65.9477C162.587 65.9477 164.638 65.5596 166.578 64.7834C168.408 64.0073 170.016 62.843 171.291 61.2353L169.683 59.4057C168.574 60.7917 167.244 61.7897 165.636 62.4549ZM153.605 40.5561C155.324 39.5582 157.265 39.0038 159.482 39.0038C161.367 39.0038 163.141 39.4473 164.694 40.2789C166.246 41.1105 167.466 42.2748 168.463 43.6608C169.406 45.1022 170.016 46.71 170.293 48.4286L148.228 52.7529C148.117 52.0322 148.117 51.4778 148.117 51.0343C148.117 48.7613 148.56 46.6545 149.558 44.825C150.501 42.9955 151.831 41.5541 153.605 40.5561Z" fill="#D22645" stroke="#D22645" stroke-width="3" stroke-miterlimit="2"/>
<path d="M188.514 38.2831C186.629 39.3919 185.243 40.9997 184.356 43.1064V36.7862H181.695V65.7259H184.467V50.6462C184.467 47.0981 185.354 44.2706 187.184 42.2748C188.958 40.2789 191.508 39.2256 194.724 39.2256L195.389 39.281V36.5645C192.672 36.5645 190.399 37.1743 188.514 38.2831Z" fill="#CE1B3F" stroke="#CE1B3F" stroke-width="3" stroke-miterlimit="2"/>
<path d="M345.741 48.9831C344.299 47.3199 342.192 46.2665 339.42 45.7121C341.361 45.1023 342.969 43.9935 344.133 42.4412C345.297 40.9443 345.907 39.1148 345.907 36.8417C345.907 33.6816 344.687 31.2423 342.359 29.5237C340.03 27.805 336.759 26.918 332.546 26.918H316.357V29.3573H332.435C335.817 29.3573 338.423 30.0226 340.252 31.3532C342.082 32.6837 343.024 34.5687 343.024 37.0635C343.024 39.6137 342.082 41.5541 340.252 42.8847C338.423 44.2153 335.817 44.8251 332.435 44.8251H316.357V47.2645H333.655C337.369 47.2645 340.252 47.9297 342.192 49.2049C344.133 50.5354 345.131 52.5312 345.131 55.2478C345.131 58.0198 344.133 60.0157 342.192 61.3462C340.252 62.6768 337.425 63.2866 333.655 63.2866H316.357V65.726H333.655C338.367 65.726 341.915 64.8389 344.355 63.0649C346.739 61.2908 347.958 58.796 347.958 55.4696C347.958 52.8639 347.182 50.7017 345.741 48.9831Z" fill="#B71845" stroke="#B71845" stroke-width="3" stroke-miterlimit="2"/>
<path d="M374.234 62.4549C372.626 63.1202 370.852 63.4529 369.022 63.4529C366.028 63.4529 363.534 62.6767 361.427 61.1244C359.32 59.5721 357.879 57.4653 357.214 54.8042L381.663 50.0364C381.496 47.4861 380.886 45.2131 379.667 43.1618C378.447 41.1105 376.839 39.5028 374.843 38.3385C372.848 37.1743 370.575 36.5645 368.08 36.5645C365.363 36.5645 362.924 37.2297 360.817 38.4494C358.655 39.7245 356.992 41.4432 355.772 43.6608C354.552 45.8784 353.998 48.4286 353.998 51.2561C353.998 54.1389 354.608 56.6337 355.883 58.8513C357.158 61.0689 358.932 62.843 361.205 64.0627C363.478 65.3378 366.029 65.9477 368.967 65.9477C371.184 65.9477 373.236 65.5596 375.176 64.7834C377.006 64.0073 378.613 62.843 379.888 61.2353L378.281 59.4057C377.172 60.7917 375.841 61.7897 374.234 62.4549ZM362.203 40.5561C363.922 39.5582 365.862 39.0038 368.08 39.0038C369.965 39.0038 371.739 39.4473 373.291 40.2789C374.843 41.1105 376.063 42.2748 377.061 43.6608C378.004 45.1022 378.613 46.71 378.891 48.4286L356.825 52.7529C356.715 52.0322 356.715 51.4778 356.715 51.0343C356.715 48.7613 357.158 46.6545 358.156 44.825C359.098 42.9955 360.429 41.5541 362.203 40.5561Z" fill="#AE1741" stroke="#AE1741" stroke-width="3" stroke-miterlimit="2"/>
<path d="M397.11 38.2831C395.225 39.3919 393.839 40.9997 392.952 43.1064V36.7862H390.291V65.7259H393.063V50.6462C393.063 47.0981 393.95 44.2706 395.78 42.2748C397.554 40.2789 400.104 39.2256 403.319 39.2256L403.985 39.281V36.5645C401.268 36.5645 398.995 37.1743 397.11 38.2831Z" fill="#A5163E" stroke="#A5163E" stroke-width="3" stroke-miterlimit="2"/>
<path d="M418.442 38.2831C416.557 39.3919 415.171 40.9997 414.284 43.1064V36.7862H411.623V65.7259H414.395V50.6462C414.395 47.0981 415.282 44.2706 417.112 42.2748C418.886 40.2789 421.436 39.2256 424.651 39.2256L425.317 39.281V36.5645C422.6 36.5645 420.327 37.1743 418.442 38.2831Z" fill="#9C153B" stroke="#9C153B" stroke-width="3" stroke-miterlimit="2"/>
<path d="M462.591 36.7871H459.764L448.177 62.6776L436.59 36.7871H433.651L446.68 65.6159L445.128 69.1086C444.24 70.9936 443.353 72.3242 442.356 73.1003C441.358 73.8765 440.138 74.2646 438.752 74.2646C436.645 74.2646 434.816 73.5438 433.374 71.9915L431.988 74.0982C432.764 74.9853 433.762 75.5951 434.927 76.0386C436.091 76.4821 437.366 76.7039 438.697 76.7039C440.692 76.7039 442.411 76.205 443.852 75.0962C445.294 74.0428 446.624 72.2133 447.733 69.663L462.591 36.7871Z" fill="#931337" stroke="#931337" stroke-width="3" stroke-miterlimit="2"/>
<circle cx="222" cy="59.5" r="2" fill="white"/>
<path d="M282.5 75.5V60.5H302V75.5H282.5Z" fill="white"/>
<path d="M286 46.5V34.5H302.5V46.5H286Z" fill="white"/>
<path d="M296.499 16C297.499 16.5 299.499 17.9 299.499 19.5V31.5H282.499V49H299.499V57.5H279.999V79H299.499C298.999 80.3335 297.399 83 294.999 83H267.499V69.5H254.999V83H249.499V69.5H227.999V83H223.499V86H220.499V83H216.999V86H213.999V83H211.499V86H208V83C206.5 82.8328 203.601 81.7988 204 79C204.4 76.1995 204.167 38.8332 204 20.5C203.834 19.5 204.201 17.2001 206.999 16H296.499ZM245.999 86L230.999 85.5V72.5H245.999V86ZM264.499 86L257.999 85.5V72.5H264.499V86ZM212 72.5C210.344 72.5004 209 73.8434 209 75.5C209 77.1566 210.344 78.4996 212 78.5C213.657 78.5 215 77.1569 215 75.5C215 73.8431 213.657 72.5 212 72.5ZM274 72.5C272.344 72.5006 271 73.8435 271 75.5C271 77.1565 272.344 78.4994 274 78.5C275.657 78.5 277 77.1569 277 75.5C277 73.8431 275.657 72.5 274 72.5ZM208.5 64H214V61.5H211.5V58H214V54.5H211.5V51.5H214V48.5H211.5V46H214V43H208.5V64ZM217.499 64H226.499V55H217.499V64ZM219.5 34H222V36.5H219.5V39.5H222V42.5H219.5V46H222V49.5H219.5V52H225V31H219.5V34ZM244.999 41V52H258.499V38.5H247.499L244.999 41ZM208.499 40H212.999V35.5H208.499V40ZM211 20.5C209.344 20.5006 208 21.8435 208 23.5C208 25.1565 209.344 26.4994 211 26.5C212.657 26.5 214 25.1569 214 23.5C214 21.8431 212.657 20.5 211 20.5ZM220 26.5H223.5V24.5H220V26.5ZM226 26.5H229.5V24.5H226V26.5ZM232 26.5H235.5V24.5H232V26.5ZM238 26.5H241.5V24.5H238V26.5ZM244 26.5H247.5V24.5H244V26.5ZM250 26.5H253.5V24.5H250V26.5ZM256 26.5H259.5V24.5H256V26.5ZM262 26.5H265.5V24.5H262V26.5ZM274 20.5C272.344 20.5006 271 21.8435 271 23.5C271 25.1565 272.344 26.4994 274 26.5C275.657 26.5 277 25.1569 277 23.5C277 21.8431 275.657 20.5 274 20.5ZM220 22.5H223.5V20.5H220V22.5ZM226 22.5H229.5V20.5H226V22.5ZM232 22.5H235.5V20.5H232V22.5ZM238 20.5V22.5H241.5V20.5H238ZM244 22.5H247.5V20.5H244V22.5ZM250 22.5H253.5V20.5H250V22.5ZM256 22.5H259.5V20.5H256V22.5ZM262 22.5H265.5V20.5H262V22.5Z" fill="white"/>
</g>
<defs>
<filter id="filter0_d_956_355" x="0.908203" y="3.26953" width="468.008" height="121.775" filterUnits="userSpaceOnUse" color-interpolation-filters="sRGB">
<feFlood flood-opacity="0" result="BackgroundImageFix"/>
<feColorMatrix in="SourceAlpha" type="matrix" values="0 0 0 0 0 0 0 0 0 0 0 0 0 0 0 0 0 0 127 0" result="hardAlpha"/>
<feOffset dy="4"/>
<feGaussianBlur stdDeviation="2"/>
<feComposite in2="hardAlpha" operator="out"/>
<feColorMatrix type="matrix" values="0 0 0 0 0 0 0 0 0 0 0 0 0 0 0 0 0 0 0.25 0"/>
<feBlend mode="normal" in2="BackgroundImageFix" result="effect1_dropShadow_956_355"/>
<feBlend mode="normal" in="SourceGraphic" in2="effect1_dropShadow_956_355" result="shape"/>
</filter>
</defs>
</svg>
