<svg width="394" height="70" viewBox="0 0 394 70" fill="none" xmlns="http://www.w3.org/2000/svg">
<path d="M6.0433 66.929L4 56.334H5.12003L6.40656 63.6143L6.58819 64.6738C6.61846 64.5527 6.71432 64.2096 6.87577 63.6446L8.9645 56.334H9.75155L11.81 63.6446C11.9109 64.0078 11.9866 64.2904 12.037 64.4922L12.2186 63.5992L13.7474 56.334H14.8523L12.5516 66.929H11.8857L9.61532 59.3309C9.49423 58.9273 9.40342 58.6144 9.34288 58.3925C9.28234 58.6144 9.19153 58.9273 9.07044 59.3309L6.76982 66.929H6.0433Z" fill="#FCFCFC"/>
<path d="M16.0879 66.928V56.4995L17.1474 56V60.0564C17.6115 59.3601 18.2775 59.012 19.1453 59.012C20.0938 59.012 20.79 59.2996 21.234 59.8748C21.6881 60.4499 21.9151 61.3732 21.9151 62.6446V66.928H20.8556V62.2057C20.8556 61.4287 20.6942 60.8636 20.3713 60.5105C20.0484 60.1472 19.6095 59.9656 19.0545 59.9656C17.7831 59.9656 17.1474 60.7022 17.1474 62.1754V66.928H16.0879Z" fill="#FCFCFC"/>
<path d="M27.0867 67.1094C26.0776 67.1094 25.2654 66.7158 24.6498 65.9288C24.0343 65.1417 23.7266 64.1831 23.7266 63.053C23.7266 61.7917 24.0343 60.8028 24.6498 60.0864C25.2654 59.3699 26.0776 59.0117 27.0867 59.0117C27.9746 59.0117 28.7062 59.3296 29.2813 59.9653C29.8565 60.5909 30.1441 61.5192 30.1441 62.7503C30.1441 63.0227 30.134 63.2699 30.1138 63.4919H24.8466C24.9374 64.2992 25.1796 64.9399 25.5731 65.4142C25.9666 65.8884 26.4863 66.1255 27.1321 66.1255C27.7476 66.1255 28.3278 65.9237 28.8727 65.5201L29.4478 66.2315C28.7415 66.8167 27.9545 67.1094 27.0867 67.1094ZM24.8163 62.5384H29.0694C29.0594 61.5999 28.8525 60.939 28.4489 60.5556C28.0553 60.162 27.6013 59.9653 27.0867 59.9653C26.4409 59.9653 25.9111 60.1822 25.4974 60.6161C25.0837 61.05 24.8567 61.6908 24.8163 62.5384Z" fill="#FCFCFC"/>
<path d="M36.7208 66.9277V62.2054C36.7208 61.4284 36.5594 60.8633 36.2365 60.5102C35.9136 60.1469 35.4747 59.9653 34.9197 59.9653C33.6483 59.9653 33.0126 60.7019 33.0126 62.1751V66.9277H31.9531V59.1933H33.0126V60.041C33.4869 59.3548 34.1528 59.0117 35.0105 59.0117C35.959 59.0117 36.6553 59.2993 37.0992 59.8745C37.5533 60.4496 37.7804 61.3729 37.7804 62.6443V66.9277H36.7208Z" fill="#FCFCFC"/>
<path d="M46.1795 67.1097C45.1604 67.1097 44.6508 66.5194 44.6508 65.3388V60.1472H43.334V59.1937H44.6508V56.5298L45.7103 56V59.1937H47.6779V60.1472H45.7103V64.8847C45.7103 65.2782 45.7658 65.581 45.8768 65.7929C45.9878 66.0048 46.2098 66.1107 46.5427 66.1107C46.8757 66.1107 47.2642 65.9594 47.7082 65.6566L47.5871 66.7615C47.1532 66.9936 46.684 67.1097 46.1795 67.1097Z" fill="#FCFCFC"/>
<path d="M50.1426 66.928V56.4995L51.2021 56V60.0564C51.6662 59.3601 52.3322 59.012 53.2 59.012C54.1485 59.012 54.8447 59.2996 55.2887 59.8748C55.7428 60.4499 55.9698 61.3732 55.9698 62.6446V66.928H54.9103V62.2057C54.9103 61.4287 54.7489 60.8636 54.426 60.5105C54.1031 60.1472 53.6641 59.9656 53.1092 59.9656C51.8378 59.9656 51.2021 60.7022 51.2021 62.1754V66.928H50.1426Z" fill="#FCFCFC"/>
<path d="M61.1433 67.1094C60.1343 67.1094 59.322 66.7158 58.7065 65.9288C58.091 65.1417 57.7832 64.1831 57.7832 63.053C57.7832 61.7917 58.091 60.8028 58.7065 60.0864C59.322 59.3699 60.1343 59.0117 61.1433 59.0117C62.0313 59.0117 62.7628 59.3296 63.338 59.9653C63.9131 60.5909 64.2007 61.5192 64.2007 62.7503C64.2007 63.0227 64.1906 63.2699 64.1704 63.4919H58.9032C58.994 64.2992 59.2362 64.9399 59.6297 65.4142C60.0233 65.8884 60.5429 66.1255 61.1887 66.1255C61.8042 66.1255 62.3844 65.9237 62.9293 65.5201L63.5045 66.2315C62.7981 66.8167 62.0111 67.1094 61.1433 67.1094ZM58.873 62.5384H63.1261C63.116 61.5999 62.9091 60.939 62.5055 60.5556C62.112 60.162 61.6579 59.9653 61.1433 59.9653C60.4975 59.9653 59.9678 60.1822 59.5541 60.6161C59.1404 61.05 58.9133 61.6908 58.873 62.5384Z" fill="#FCFCFC"/>
<path d="M70.3535 66.929V56.334H76.3926V57.3481H71.413V60.9504H74.7731V61.9494H71.413V65.9149H76.7256V66.929H70.3535Z" fill="#FCFCFC"/>
<path d="M83.1891 66.9277V66.1709C82.4929 66.7966 81.7361 67.1094 80.9188 67.1094C80.1115 67.1094 79.4708 66.8874 78.9965 66.4434C78.5223 65.9893 78.2852 65.3385 78.2852 64.4909C78.2852 63.6534 78.5525 63.0177 79.0873 62.5838C79.6322 62.1499 80.3032 61.9329 81.1004 61.9329C81.8168 61.9329 82.513 62.1146 83.1891 62.4778V61.827C83.1891 60.5657 82.624 59.935 81.4939 59.935C80.7674 59.935 80.0005 60.2125 79.1933 60.7675L78.8906 59.8593C79.7785 59.2943 80.6816 59.0117 81.5999 59.0117C81.9127 59.0117 82.2053 59.0521 82.4777 59.1328C82.7502 59.2034 83.0176 59.3346 83.2799 59.5263C83.5524 59.708 83.7693 59.9855 83.9307 60.3588C84.0922 60.7221 84.1729 61.166 84.1729 61.6908V66.9277H83.1891ZM81.0247 66.1861C81.8219 66.1861 82.5433 65.7875 83.1891 64.9904V63.4919C82.5534 63.0681 81.8925 62.8562 81.2063 62.8562C80.6514 62.8562 80.1872 62.9975 79.8139 63.28C79.4506 63.5525 79.269 63.9561 79.269 64.4909C79.269 65.0055 79.4203 65.4192 79.723 65.732C80.0358 66.0347 80.4697 66.1861 81.0247 66.1861Z" fill="#FCFCFC"/>
<path d="M86.918 66.9277V59.1933H87.9775V60.2831C88.371 59.4355 89.0218 59.0117 89.93 59.0117C90.3638 59.0117 90.7271 59.1177 91.0197 59.3296L90.8532 60.3588C90.5404 60.1671 90.2075 60.0712 89.8543 60.0712C89.38 60.0712 88.9461 60.273 88.5526 60.6767C88.1692 61.0702 87.9775 61.6958 87.9775 62.5535V66.9277H86.918Z" fill="#FCFCFC"/>
<path d="M95.1717 67.1097C94.1526 67.1097 93.643 66.5194 93.643 65.3388V60.1472H92.3262V59.1937H93.643V56.5298L94.7025 56V59.1937H96.6701V60.1472H94.7025V64.8847C94.7025 65.2782 94.758 65.581 94.869 65.7929C94.98 66.0048 95.2019 66.1107 95.5349 66.1107C95.8679 66.1107 96.2564 65.9594 96.7004 65.6566L96.5793 66.7615C96.1454 66.9936 95.6762 67.1097 95.1717 67.1097Z" fill="#FCFCFC"/>
<path d="M99.1367 66.928V56.4995L100.196 56V60.0564C100.66 59.3601 101.326 59.012 102.194 59.012C103.143 59.012 103.839 59.2996 104.283 59.8748C104.737 60.4499 104.964 61.3732 104.964 62.6446V66.928H103.904V62.2057C103.904 61.4287 103.743 60.8636 103.42 60.5105C103.097 60.1472 102.658 59.9656 102.103 59.9656C100.832 59.9656 100.196 60.7022 100.196 62.1754V66.928H99.1367Z" fill="#FCFCFC"/>
<path d="M113.943 67.1107C113.085 67.1107 112.338 66.9038 111.703 66.4901C111.067 66.0764 110.638 65.5668 110.416 64.9614L111.415 64.5981C111.637 65.0724 111.97 65.4508 112.414 65.7333C112.858 66.0158 113.373 66.1571 113.958 66.1571C114.654 66.1571 115.199 65.9906 115.592 65.6576C115.996 65.3145 116.198 64.8302 116.198 64.2046C116.198 63.6092 115.981 63.1199 115.547 62.7364C115.113 62.3429 114.533 62.0099 113.806 61.7375C113.373 61.576 112.994 61.4146 112.671 61.2531C112.358 61.0917 112.036 60.8898 111.703 60.6477C111.38 60.3954 111.132 60.0977 110.961 59.7547C110.789 59.4116 110.704 59.0332 110.704 58.6195C110.704 57.9232 110.986 57.338 111.551 56.8637C112.116 56.3895 112.873 56.1523 113.822 56.1523C114.588 56.1523 115.234 56.3087 115.759 56.6216C116.284 56.9344 116.622 57.338 116.773 57.8324L115.789 58.1654C115.648 57.8627 115.401 57.6104 115.048 57.4086C114.704 57.2068 114.281 57.1059 113.776 57.1059C113.161 57.1059 112.676 57.2421 112.323 57.5146C111.97 57.787 111.793 58.1503 111.793 58.6043C111.793 58.8768 111.854 59.119 111.975 59.3309C112.106 59.5428 112.298 59.7345 112.55 59.906C112.813 60.0776 113.06 60.2188 113.292 60.3298C113.534 60.4408 113.847 60.572 114.23 60.7234C114.644 60.8848 115.007 61.0563 115.32 61.238C115.643 61.4095 115.961 61.6315 116.274 61.9039C116.596 62.1764 116.844 62.5043 117.015 62.8878C117.197 63.2712 117.288 63.7001 117.288 64.1743C117.288 65.0926 116.98 65.814 116.364 66.3387C115.749 66.8533 114.942 67.1107 113.943 67.1107Z" fill="#FCFCFC"/>
<path d="M122.643 67.1094C121.786 67.1094 121.079 66.7865 120.524 66.1407V69.4705L119.465 70.0003V59.1933H120.524V59.8896C121.17 59.3043 121.876 59.0117 122.643 59.0117C123.632 59.0117 124.409 59.38 124.974 60.1166C125.549 60.8431 125.837 61.8219 125.837 63.053C125.837 64.3244 125.539 65.3183 124.944 66.0347C124.359 66.7512 123.592 67.1094 122.643 67.1094ZM122.522 66.1558C123.229 66.1558 123.773 65.8884 124.157 65.3536C124.54 64.8188 124.732 64.0519 124.732 63.053C124.732 62.1045 124.535 61.3527 124.142 60.7977C123.748 60.2428 123.208 59.9653 122.522 59.9653C122.109 59.9653 121.725 60.0712 121.372 60.2831C121.019 60.495 120.736 60.7877 120.524 61.161V64.9601C121.14 65.7572 121.806 66.1558 122.522 66.1558Z" fill="#FCFCFC"/>
<path d="M131.815 67.1094C130.806 67.1094 129.994 66.7158 129.378 65.9288C128.763 65.1417 128.455 64.1831 128.455 63.053C128.455 61.7917 128.763 60.8028 129.378 60.0864C129.994 59.3699 130.806 59.0117 131.815 59.0117C132.703 59.0117 133.435 59.3296 134.01 59.9653C134.585 60.5909 134.873 61.5192 134.873 62.7503C134.873 63.0227 134.862 63.2699 134.842 63.4919H129.575C129.666 64.2992 129.908 64.9399 130.302 65.4142C130.695 65.8884 131.215 66.1255 131.861 66.1255C132.476 66.1255 133.056 65.9237 133.601 65.5201L134.176 66.2315C133.47 66.8167 132.683 67.1094 131.815 67.1094ZM129.545 62.5384H133.798C133.788 61.5999 133.581 60.939 133.177 60.5556C132.784 60.162 132.33 59.9653 131.815 59.9653C131.169 59.9653 130.64 60.1822 130.226 60.6161C129.812 61.05 129.585 61.6908 129.545 62.5384Z" fill="#FCFCFC"/>
<path d="M142.392 66.9277V66.1709C141.696 66.7966 140.939 67.1094 140.122 67.1094C139.315 67.1094 138.674 66.8874 138.2 66.4434C137.725 65.9893 137.488 65.3385 137.488 64.4909C137.488 63.6534 137.756 63.0177 138.29 62.5838C138.835 62.1499 139.506 61.9329 140.304 61.9329C141.02 61.9329 141.716 62.1146 142.392 62.4778V61.827C142.392 60.5657 141.827 59.935 140.697 59.935C139.971 59.935 139.204 60.2125 138.396 60.7675L138.094 59.8593C138.982 59.2943 139.885 59.0117 140.803 59.0117C141.116 59.0117 141.408 59.0521 141.681 59.1328C141.953 59.2034 142.221 59.3346 142.483 59.5263C142.755 59.708 142.972 59.9855 143.134 60.3588C143.295 60.7221 143.376 61.166 143.376 61.6908V66.9277H142.392ZM140.228 66.1861C141.025 66.1861 141.746 65.7875 142.392 64.9904V63.4919C141.757 63.0681 141.096 62.8562 140.409 62.8562C139.855 62.8562 139.39 62.9975 139.017 63.28C138.654 63.5525 138.472 63.9561 138.472 64.4909C138.472 65.0055 138.623 65.4192 138.926 65.732C139.239 66.0347 139.673 66.1861 140.228 66.1861Z" fill="#FCFCFC"/>
<path d="M152.746 66.928H151.58L149.098 62.024L147.811 63.4014V66.928H146.752V56.5146L147.811 56V62.1451L150.551 59.1937H151.777L149.84 61.2521L152.746 66.928Z" fill="#FCFCFC"/>
<path d="M156.992 67.1094C155.973 67.1094 155.085 66.6603 154.328 65.7623L155.07 65.1114C155.665 65.8178 156.336 66.1709 157.083 66.1709C157.527 66.1709 157.89 66.0751 158.173 65.8834C158.455 65.6816 158.596 65.4041 158.596 65.0509C158.596 64.8289 158.546 64.6321 158.445 64.4606C158.344 64.279 158.183 64.1175 157.961 63.9763C157.749 63.8249 157.557 63.7089 157.386 63.6281C157.214 63.5474 156.977 63.4465 156.674 63.3254C156.311 63.1741 156.013 63.0378 155.781 62.9168C155.549 62.7957 155.312 62.6443 155.07 62.4627C154.828 62.281 154.646 62.0691 154.525 61.827C154.414 61.5747 154.358 61.2922 154.358 60.9794C154.358 60.3941 154.59 59.9199 155.055 59.5566C155.519 59.1933 156.119 59.0117 156.856 59.0117C157.875 59.0117 158.712 59.4052 159.368 60.1923L158.672 60.7826C158.117 60.2276 157.502 59.9501 156.825 59.9501C156.382 59.9501 156.023 60.041 155.751 60.2226C155.489 60.4042 155.357 60.6514 155.357 60.9642C155.357 61.1156 155.393 61.2569 155.463 61.388C155.534 61.5192 155.615 61.6302 155.705 61.721C155.796 61.8017 155.938 61.8976 156.129 62.0086C156.321 62.1095 156.472 62.1852 156.583 62.2356C156.694 62.276 156.876 62.3466 157.128 62.4475C157.431 62.5686 157.668 62.6695 157.84 62.7503C158.011 62.8209 158.223 62.9369 158.475 63.0984C158.738 63.2497 158.934 63.4061 159.066 63.5676C159.207 63.7189 159.328 63.9208 159.429 64.173C159.54 64.4152 159.595 64.6876 159.595 64.9904C159.595 65.6361 159.358 66.1508 158.884 66.5342C158.42 66.9176 157.789 67.1094 156.992 67.1094Z" fill="#FCFCFC"/>
<path d="M161.877 68.9876C162.059 68.8261 162.231 68.589 162.392 68.2762C162.553 67.9634 162.634 67.6102 162.634 67.2167C162.311 67.2167 162.044 67.1259 161.832 66.9442C161.63 66.7727 161.529 66.5507 161.529 66.2783C161.529 65.9755 161.615 65.7334 161.787 65.5517C161.968 65.3701 162.19 65.2793 162.453 65.2793C162.745 65.2793 162.997 65.3903 163.209 65.6123C163.431 65.8242 163.542 66.137 163.542 66.5507C163.542 67.1057 163.416 67.6001 163.164 68.034C162.912 68.4679 162.579 68.811 162.165 69.0632L161.877 68.9876Z" fill="#FCFCFC"/>
<path d="M169.953 66.929L167.91 56.334H169.03L170.317 63.6143L170.498 64.6738C170.529 64.5527 170.624 64.2096 170.786 63.6446L172.875 56.334H173.662L175.72 63.6446C175.821 64.0078 175.897 64.2904 175.947 64.4922L176.129 63.5992L177.658 56.334H178.762L176.462 66.929H175.796L173.525 59.3309C173.404 58.9273 173.314 58.6144 173.253 58.3925C173.193 58.6144 173.102 58.9273 172.981 59.3309L170.68 66.929H169.953Z" fill="#FCFCFC"/>
<path d="M182.831 67.1094C181.822 67.1094 181.009 66.7158 180.394 65.9288C179.778 65.1417 179.471 64.1831 179.471 63.053C179.471 61.7917 179.778 60.8028 180.394 60.0864C181.009 59.3699 181.822 59.0117 182.831 59.0117C183.719 59.0117 184.45 59.3296 185.025 59.9653C185.601 60.5909 185.888 61.5192 185.888 62.7503C185.888 63.0227 185.878 63.2699 185.858 63.4919H180.591C180.682 64.2992 180.924 64.9399 181.317 65.4142C181.711 65.8884 182.23 66.1255 182.876 66.1255C183.492 66.1255 184.072 65.9237 184.617 65.5201L185.192 66.2315C184.486 66.8167 183.699 67.1094 182.831 67.1094ZM180.56 62.5384H184.814C184.804 61.5999 184.597 60.939 184.193 60.5556C183.8 60.162 183.345 59.9653 182.831 59.9653C182.185 59.9653 181.655 60.1822 181.242 60.6161C180.828 61.05 180.601 61.6908 180.56 62.5384Z" fill="#FCFCFC"/>
<path d="M192.564 67.2259V56.6309H193.624V66.2118H198.876V67.2259H192.564Z" fill="#FCFCFC"/>
<path d="M202.229 57.4076C202.098 57.5388 201.931 57.6044 201.729 57.6044C201.528 57.6044 201.361 57.5388 201.23 57.4076C201.099 57.2765 201.033 57.11 201.033 56.9082C201.033 56.7063 201.099 56.5348 201.23 56.3935C201.371 56.2523 201.538 56.1816 201.729 56.1816C201.931 56.1816 202.098 56.2523 202.229 56.3935C202.36 56.5348 202.426 56.7063 202.426 56.9082C202.426 57.11 202.36 57.2765 202.229 57.4076ZM201.2 66.9281V59.1937H202.259V66.9281H201.2Z" fill="#FCFCFC"/>
<path d="M208.754 67.1094C207.735 67.1094 206.847 66.6603 206.09 65.7623L206.831 65.1114C207.427 65.8178 208.098 66.1709 208.845 66.1709C209.288 66.1709 209.652 66.0751 209.934 65.8834C210.217 65.6816 210.358 65.4041 210.358 65.0509C210.358 64.8289 210.308 64.6321 210.207 64.4606C210.106 64.279 209.944 64.1175 209.722 63.9763C209.51 63.8249 209.319 63.7089 209.147 63.6281C208.976 63.5474 208.739 63.4465 208.436 63.3254C208.073 63.1741 207.775 63.0378 207.543 62.9168C207.311 62.7957 207.074 62.6443 206.831 62.4627C206.589 62.281 206.408 62.0691 206.287 61.827C206.176 61.5747 206.12 61.2922 206.12 60.9794C206.12 60.3941 206.352 59.9199 206.816 59.5566C207.281 59.1933 207.881 59.0117 208.617 59.0117C209.637 59.0117 210.474 59.4052 211.13 60.1923L210.434 60.7826C209.879 60.2276 209.263 59.9501 208.587 59.9501C208.143 59.9501 207.785 60.041 207.513 60.2226C207.25 60.4042 207.119 60.6514 207.119 60.9642C207.119 61.1156 207.154 61.2569 207.225 61.388C207.296 61.5192 207.376 61.6302 207.467 61.721C207.558 61.8017 207.699 61.8976 207.891 62.0086C208.083 62.1095 208.234 62.1852 208.345 62.2356C208.456 62.276 208.638 62.3466 208.89 62.4475C209.193 62.5686 209.43 62.6695 209.601 62.7503C209.773 62.8209 209.985 62.9369 210.237 63.0984C210.499 63.2497 210.696 63.4061 210.827 63.5676C210.969 63.7189 211.09 63.9208 211.191 64.173C211.302 64.4152 211.357 64.6876 211.357 64.9904C211.357 65.6361 211.12 66.1508 210.646 66.5342C210.181 66.9176 209.551 67.1094 208.754 67.1094Z" fill="#FCFCFC"/>
<path d="M216.853 67.1097C215.834 67.1097 215.325 66.5194 215.325 65.3388V60.1472H214.008V59.1937H215.325V56.5298L216.384 56V59.1937H218.352V60.1472H216.384V64.8847C216.384 65.2782 216.44 65.581 216.551 65.7929C216.662 66.0048 216.884 66.1107 217.217 66.1107C217.55 66.1107 217.938 65.9594 218.382 65.6566L218.261 66.7615C217.827 66.9936 217.358 67.1097 216.853 67.1097Z" fill="#FCFCFC"/>
<path d="M224.372 67.1094C223.363 67.1094 222.55 66.7158 221.935 65.9288C221.319 65.1417 221.012 64.1831 221.012 63.053C221.012 61.7917 221.319 60.8028 221.935 60.0864C222.55 59.3699 223.363 59.0117 224.372 59.0117C225.26 59.0117 225.991 59.3296 226.567 59.9653C227.142 60.5909 227.429 61.5192 227.429 62.7503C227.429 63.0227 227.419 63.2699 227.399 63.4919H222.132C222.223 64.2992 222.465 64.9399 222.858 65.4142C223.252 65.8884 223.771 66.1255 224.417 66.1255C225.033 66.1255 225.613 65.9237 226.158 65.5201L226.733 66.2315C226.027 66.8167 225.24 67.1094 224.372 67.1094ZM222.101 62.5384H226.355C226.345 61.5999 226.138 60.939 225.734 60.5556C225.341 60.162 224.886 59.9653 224.372 59.9653C223.726 59.9653 223.196 60.1822 222.783 60.6161C222.369 61.05 222.142 61.6908 222.101 62.5384Z" fill="#FCFCFC"/>
<path d="M235.268 66.9277V62.2054C235.268 61.4284 235.106 60.8633 234.783 60.5102C234.46 60.1469 234.022 59.9653 233.467 59.9653C232.195 59.9653 231.559 60.7019 231.559 62.1751V66.9277H230.5V59.1933H231.559V60.041C232.034 59.3548 232.7 59.0117 233.557 59.0117C234.506 59.0117 235.202 59.2993 235.646 59.8745C236.1 60.4496 236.327 61.3729 236.327 62.6443V66.9277H235.268Z" fill="#FCFCFC"/>
<g filter="url(#filter0_d_966_217)">
<path d="M18.5918 31.4404C21.4747 30.6088 31.6133 28.2803 33.1656 26.1736C34.7179 24.0668 35.5495 21.5166 35.5495 18.412C35.5495 14.3648 34.1635 11.1493 31.3915 8.82085C28.6195 6.49237 24.7942 5.32812 19.9154 5.32812H6V7.87837H19.9154C24.018 7.87837 27.1781 8.82085 29.3957 10.6504C31.5578 12.4799 32.6666 15.0856 32.6666 18.412C32.6666 21.7938 31.5578 24.3995 29.3957 26.229C27.1781 28.0585 13.1944 27.9141 9.0918 27.9141L8.82744 16.4141H6V44.1361H8.82744V31.4404H19.9154C21.0242 31.4404 15.2058 31.6621 16.5918 31.4404L32.9438 44.1361H36.1594L18.5918 31.4404Z" fill="#CE1B3F" stroke="#CE1B3F" stroke-width="3" stroke-miterlimit="2"/>
<path d="M45.0687 15.1975V44.1372H47.8407V15.1975H45.0687ZM44.8469 7.54682C45.2904 7.99034 45.7894 8.15666 46.4547 8.15666C47.0645 8.15666 47.6189 7.9349 48.0624 7.49138C48.5059 7.04786 48.7277 6.5489 48.7277 5.88362C48.7277 5.27378 48.5059 4.77482 48.0624 4.3313C47.6189 3.88778 47.0645 3.66602 46.4547 3.66602C45.7894 3.66602 45.2904 3.88778 44.8469 4.3313C44.4034 4.77482 44.1816 5.32922 44.1816 5.93906C44.1816 6.60434 44.4034 7.1033 44.8469 7.54682Z" fill="#CE1B3F" stroke="#CE1B3F" stroke-width="3" stroke-miterlimit="2"/>
<path d="M63.5143 42.4729C65.7319 43.748 68.2267 44.3578 71.0541 44.3578C73.3826 44.3578 75.4893 43.9143 77.3743 43.0273C79.2592 42.1402 80.8116 40.8097 82.0312 39.0356L79.9799 37.5387C78.9266 38.9801 77.6515 40.0889 76.0992 40.8097C74.5468 41.5304 72.8836 41.863 71.0541 41.863C68.7811 41.863 66.7298 41.364 64.9557 40.3661C63.1816 39.3682 61.7402 37.9268 60.7423 36.0418C59.7444 34.2123 59.2454 32.1056 59.2454 29.6662C59.2454 27.2823 59.7444 25.1756 60.7423 23.2906C61.7402 21.4611 63.1816 20.0196 64.9557 19.0217C66.7298 18.0238 68.7811 17.4694 71.0541 17.4694C72.8836 17.4694 74.5468 17.8575 76.0992 18.5782C77.6515 19.2989 78.9266 20.3523 79.9799 21.7937L82.0312 20.2969C80.8116 18.5782 79.2592 17.2477 77.3743 16.3606C75.4893 15.4736 73.3826 14.9746 71.0541 14.9746C68.2267 14.9746 65.7319 15.6399 63.5143 16.8596C61.2967 18.0793 59.5226 19.8533 58.3029 22.0709C57.0278 24.2885 56.418 26.8388 56.418 29.6662C56.418 32.4937 57.0278 35.0439 58.3029 37.2615C59.5226 39.4791 61.2967 41.2532 63.5143 42.4729Z" fill="#CE1B3F" stroke="#CE1B3F" stroke-width="3" stroke-miterlimit="2"/>
<path d="M112.519 18.1351C110.413 16.0284 107.53 14.975 103.926 14.975C101.265 14.975 98.9367 15.5294 96.9963 16.6382C95.0004 17.747 93.559 19.2439 92.5611 21.2398V3H89.7891V44.1365H92.5611V28.7242C92.5611 25.2869 93.5036 22.5703 95.4994 20.519C97.4398 18.5232 100.101 17.4698 103.538 17.4698C106.477 17.4698 108.75 18.3569 110.413 20.0201C112.076 21.7387 112.908 24.2335 112.908 27.449V44.1365H115.68V27.2273C115.68 23.291 114.626 20.2418 112.519 18.1351Z" fill="#CE1B3F" stroke="#CE1B3F" stroke-width="3" stroke-miterlimit="2"/>
<path d="M141.506 42.3073L140.341 40.3669C139.122 41.4757 137.625 41.9746 135.851 41.9746C134.077 41.9746 132.691 41.5311 131.804 40.5332C130.917 39.5353 130.473 38.0938 130.473 36.2089V16H139.676V13.5H130.473V2H127.701V13.5H122.379V16H127.701V36.4861C127.701 38.9809 128.366 40.9213 129.752 42.3073C131.083 43.6933 133.023 44.3586 135.574 44.3586C136.682 44.3586 137.791 44.1922 138.845 43.8596C139.898 43.527 140.785 42.9726 141.506 42.3073Z" fill="#CE1B3F" stroke="#CE1B3F" stroke-width="3" stroke-miterlimit="2"/>
<path d="M169.97 36.1634C168.91 37.5434 167.54 38.7185 165.956 39.6333C163.363 41.1302 160.814 41.7054 158.214 41.4144C155.613 41.1234 153.311 40.0197 151.405 38.0477L170.194 21.6941C168.775 19.5687 167.11 17.9051 165.028 16.7385C162.947 15.5719 160.75 14.9834 158.44 14.9731C156.129 14.9627 153.856 15.5711 151.695 16.8185C149.343 18.1768 147.563 19.9726 146.348 22.0822C145.113 24.2676 144.532 26.5876 144.585 29.1179C144.637 31.6483 145.432 34.134 146.846 36.5827C148.287 39.0793 150.063 40.935 152.276 42.2179C154.489 43.5008 156.912 44.1502 159.491 44.07C162.097 44.0377 164.61 43.2907 167.155 41.8216C169.075 40.7128 170.658 39.351 171.95 37.7087C173.147 36.1217 173.957 34.3096 174.257 32.2797L171.95 31.4992C171.683 33.2539 171.03 34.7834 169.97 36.1634ZM148.602 23.2137C149.591 21.4902 150.994 20.0398 152.915 18.931C154.547 17.9886 156.305 17.4856 158.066 17.4297C159.826 17.3737 161.464 17.7721 163.021 18.4735C164.558 19.2505 165.89 20.338 166.99 21.6878L150.043 36.4653C149.586 35.8966 149.309 35.4164 149.088 35.0324C147.951 33.0638 147.282 31.0176 147.231 28.9342C147.133 26.8786 147.564 24.965 148.602 23.2137Z" fill="#CE1B3F" stroke="#CE1B3F" stroke-width="3" stroke-miterlimit="2"/>
<path d="M188.106 16.6933C186.221 17.8021 184.835 19.4098 183.948 21.5165V15.1964H181.287V44.1361H184.059V29.0564C184.059 25.5082 184.946 22.6808 186.776 20.6849C188.55 18.6891 191.1 17.6357 194.315 17.6357L194.981 17.6912V14.9746C192.264 14.9746 189.991 15.5845 188.106 16.6933Z" fill="#CE1B3F" stroke="#CE1B3F" stroke-width="3" stroke-miterlimit="2"/>
<path d="M273.383 29.0651C271.942 27.4019 269.835 26.3486 267.063 25.7942C269.003 25.1843 270.611 24.0755 271.775 22.5232C272.94 21.0263 273.55 19.1968 273.55 16.9238C273.55 13.7637 272.33 11.3243 270.001 9.60568C267.673 7.88704 264.402 7 260.188 7H244V9.43936H260.078C263.459 9.43936 266.065 10.1046 267.895 11.4352C269.724 12.7658 270.667 14.6507 270.667 17.1455C270.667 19.6958 269.724 21.6362 267.895 22.9667C266.065 24.2973 263.459 24.9071 260.078 24.9071H244V27.3465H261.297C265.012 27.3465 267.895 28.0118 269.835 29.2869C271.775 30.6174 272.773 32.6133 272.773 35.3298C272.773 38.1018 271.775 40.0977 269.835 41.4282C267.895 42.7588 265.067 43.3686 261.297 43.3686H244V45.808H261.297C266.01 45.808 269.558 44.921 271.997 43.1469C274.381 41.3728 275.601 38.878 275.601 35.5516C275.601 32.9459 274.825 30.7838 273.383 29.0651Z" fill="#CE1B3F"/>
<path d="M244 9.43936V7H260.188C264.402 7 267.673 7.88704 270.001 9.60568C272.33 11.3243 273.55 13.7637 273.55 16.9238C273.55 19.1968 272.94 21.0263 271.775 22.5232C270.611 24.0755 269.003 25.1843 267.063 25.7942C269.835 26.3486 271.942 27.4019 273.383 29.0651C274.825 30.7838 275.601 32.9459 275.601 35.5516C275.601 38.878 274.381 41.3728 271.997 43.1469C269.558 44.921 266.01 45.808 261.297 45.808H244V43.3686M244 9.43936V15.5M244 9.43936H260.078C263.459 9.43936 266.065 10.1046 267.895 11.4352C269.724 12.7658 270.667 14.6507 270.667 17.1455C270.667 19.6958 269.724 21.6362 267.895 22.9667C266.065 24.2973 263.459 24.9071 260.078 24.9071H244V27.3465H261.297C265.012 27.3465 267.895 28.0118 269.835 29.2869C271.775 30.6174 272.773 32.6133 272.773 35.3298C272.773 38.1018 271.775 40.0977 269.835 41.4282C267.895 42.7588 265.067 43.3686 261.297 43.3686H244M244 43.3686V38.5" stroke="#CE1B3F" stroke-width="3" stroke-miterlimit="2"/>
<path d="M295.419 44.2369C293.694 44.0091 291.991 43.4102 290.407 42.4954C287.814 40.9985 286.042 39.079 284.994 36.6813C283.945 34.2836 283.75 31.7383 284.505 29.1011L308.062 37.1966C309.193 34.9048 309.802 32.6314 309.771 30.2451C309.74 27.8588 309.152 25.6626 308.005 23.6564C306.859 21.6502 305.196 19.9855 303.035 18.7381C300.682 17.3799 298.237 16.7363 295.803 16.7392C293.293 16.7624 290.993 17.4192 288.828 18.7299C286.663 20.0405 284.908 21.9719 283.494 24.4206C282.053 26.9172 281.333 29.3827 281.329 31.9407C281.324 34.4988 281.974 36.9222 283.332 39.115C284.663 41.3558 286.567 43.1591 289.112 44.6283C291.032 45.7371 293.003 46.4266 295.071 46.7246C297.044 46.9672 299.018 46.7628 300.926 46.008L300.449 43.6198C298.795 44.2657 297.144 44.4646 295.419 44.2369ZM295.95 19.2567C297.937 19.2518 299.895 19.7419 301.815 20.8507C303.448 21.7932 304.762 23.0643 305.691 24.5606C306.619 26.057 307.094 27.6751 307.265 29.3744C307.36 31.0939 307.085 32.7912 306.465 34.4182L285.194 27.1306C285.459 26.451 285.736 25.9709 285.958 25.5868C287.094 23.6183 288.531 22.0156 290.31 20.9301C292.041 19.8169 293.914 19.2339 295.95 19.2567Z" fill="#CE1B3F" stroke="#CE1B3F" stroke-width="3" stroke-miterlimit="2"/>
<path d="M324.753 18.3651C322.868 19.4739 321.482 21.0817 320.595 23.1884V16.8682H317.934V45.8079H320.706V30.7282C320.706 27.1801 321.593 24.3526 323.422 22.3568C325.196 20.361 327.746 19.3076 330.962 19.3076L331.627 19.363V16.6465C328.911 16.6465 326.638 17.2563 324.753 18.3651Z" fill="#CE1B3F" stroke="#CE1B3F" stroke-width="3" stroke-miterlimit="2"/>
<path d="M346.085 18.3651C344.2 19.4739 342.814 21.0817 341.927 23.1884V16.8682H339.266V45.8079H342.038V30.7282C342.038 27.1801 342.925 24.3526 344.754 22.3568C346.528 20.361 349.078 19.3076 352.294 19.3076L352.959 19.363V16.6465C350.243 16.6465 347.97 17.2563 346.085 18.3651Z" fill="#CE1B3F" stroke="#CE1B3F" stroke-width="3" stroke-miterlimit="2"/>
<path d="M382 17H379.69L370.225 37.1069L360.759 17H358.359L369.002 39.3889L367.734 42.1014C367.009 43.5653 366.284 44.5986 365.469 45.2014C364.654 45.8042 363.658 46.1056 362.525 46.1056C360.804 46.1056 359.31 45.5458 358.132 44.3403L357 45.9764C357.634 46.6653 358.449 47.1389 359.4 47.4833C360.351 47.8278 361.393 48 362.48 48C364.11 48 365.514 47.6125 366.692 46.7514C367.87 45.9333 368.957 44.5125 369.862 42.5319L382 17Z" fill="#CE1B3F" stroke="#CE1B3F" stroke-width="3" stroke-miterlimit="2"/>
<ellipse cx="204.275" cy="29.3704" rx="1.02857" ry="1.0286" fill="white"/>
<path d="M233.391 37.5992V29.8848H243.419V37.5992H233.391Z" fill="white"/>
<path d="M235.191 22.6872V16.5156H243.677V22.6872H235.191Z" fill="white"/>
</g>
<path d="M240.591 7C241.105 7.25746 242.133 7.97744 242.134 8.7998V14.9717H233.39V23.9717H242.134V28.3438H232.105V39.4004H242.134C241.876 40.086 241.053 41.4573 239.819 41.458H216.419V34.5146H205.362V41.458H203.048V43.001H201.505V41.458H199.705V43.001H198.162V41.458H196.876V43.001H195.076V41.458C194.304 41.372 192.814 40.8398 193.019 39.4004C193.163 38.3944 193.146 28.7611 193.094 19.8223L196.715 19.9434V13H193.048C193.037 11.6661 193.029 10.4227 193.019 9.31445C192.934 8.80016 193.123 7.61718 194.562 7H240.591ZM214.619 43.001L206.905 42.7441V36.0576H214.619V43.001ZM198.134 36.0586C197.282 36.0587 196.591 36.7495 196.591 37.6016C196.591 38.4536 197.282 39.1444 198.134 39.1445C198.985 39.1442 199.676 38.4534 199.676 37.6016C199.676 36.7497 198.985 36.0589 198.134 36.0586ZM229.019 36.0586C228.167 36.0588 227.476 36.7496 227.476 37.6016C227.476 38.4535 228.167 39.1444 229.019 39.1445C229.871 39.144 230.561 38.4533 230.561 37.6016C230.561 36.7498 229.871 36.0591 229.019 36.0586ZM201.963 31.6855H206.592V27.0566H201.963V31.6855ZM214.105 19.8584V25.5156H221.049V18.5723H215.391L214.105 19.8584ZM201.001 24.7998H203.829V23.5146H202.544V21.7148H203.829V19.9141H202.544V18.3711H203.829V16.8291H202.544V15.543H203.829V14H201.001V24.7998ZM205 15.543H206.286V16.8291H205V18.3711H206.286V19.9141H205V21.7148H206.286V23.5146H205V24.7998H207.829V14H205V15.543ZM226 22.3145H228.314V20H226V22.3145ZM196.62 9.31445C195.768 9.31462 195.077 10.0054 195.077 10.8574C195.077 11.7092 195.768 12.3992 196.62 12.3994C197.471 12.399 198.163 11.7091 198.163 10.8574C198.163 10.0055 197.472 9.31483 196.62 9.31445ZM201.248 12.3994H203.048V11.3711H201.248V12.3994ZM204.333 12.3994H206.133V11.3711H204.333V12.3994ZM207.419 12.3994H209.218V11.3711H207.419V12.3994ZM210.504 12.3994H212.303V11.3711H210.504V12.3994ZM213.592 12.3994H215.391V11.3711H213.592V12.3994ZM216.676 12.3994H218.476V11.3711H216.676V12.3994ZM219.761 12.3994H221.562V11.3711H219.761V12.3994ZM222.847 12.3994H224.647V11.3711H222.847V12.3994ZM229.018 9.31445C228.166 9.31462 227.475 10.0054 227.475 10.8574C227.476 11.7092 228.166 12.3992 229.018 12.3994C229.87 12.399 230.561 11.7091 230.561 10.8574C230.561 10.0056 229.87 9.31486 229.018 9.31445ZM201.248 10.3428H203.048V9.31445H201.248V10.3428ZM204.333 10.3428H206.133V9.31445H204.333V10.3428ZM207.419 10.3428H209.218V9.31445H207.419V10.3428ZM210.504 10.3428H212.303V9.31445H210.504V10.3428ZM213.592 10.3428H215.391V9.31445H213.592V10.3428ZM216.676 10.3428H218.476V9.31445H216.676V10.3428ZM219.761 10.3428H221.562V9.31445H219.761V10.3428ZM222.847 10.3428H224.647V9.31445H222.847V10.3428Z" fill="white"/>
<path d="M389.5 14C391.433 14 393 12.433 393 10.5C393 8.567 391.433 7 389.5 7C387.567 7 386 8.567 386 10.5C386 12.433 387.567 14 389.5 14Z" stroke="white"/>
<path d="M389.218 10.3327C389.395 10.3327 389.524 10.3007 389.602 10.2396C389.679 10.1814 389.721 10.0824 389.721 9.94277C389.721 9.80601 389.679 9.70999 389.602 9.64888C389.524 9.59069 389.395 9.56159 389.218 9.56159H388.857V10.3327H389.218ZM388.857 10.8652V12H388V9H389.308C389.747 9 390.066 9.06693 390.269 9.20078C390.475 9.33172 390.575 9.54122 390.575 9.82929C390.575 10.0272 390.523 10.1901 390.417 10.3181C390.31 10.4433 390.153 10.5393 389.937 10.5975C390.056 10.6237 390.159 10.679 390.252 10.7633C390.346 10.8477 390.439 10.9758 390.533 11.1503L391 12H390.088L389.682 11.2551C389.602 11.1067 389.518 11.0019 389.434 10.9496C389.35 10.8943 389.237 10.8652 389.099 10.8652H388.857Z" fill="white"/>
<defs>
<filter id="filter0_d_966_217" x="0.5" y="0.5" width="387.873" height="57" filterUnits="userSpaceOnUse" color-interpolation-filters="sRGB">
<feFlood flood-opacity="0" result="BackgroundImageFix"/>
<feColorMatrix in="SourceAlpha" type="matrix" values="0 0 0 0 0 0 0 0 0 0 0 0 0 0 0 0 0 0 127 0" result="hardAlpha"/>
<feOffset dy="4"/>
<feGaussianBlur stdDeviation="2"/>
<feComposite in2="hardAlpha" operator="out"/>
<feColorMatrix type="matrix" values="0 0 0 0 0 0 0 0 0 0 0 0 0 0 0 0 0 0 0.25 0"/>
<feBlend mode="normal" in2="BackgroundImageFix" result="effect1_dropShadow_966_217"/>
<feBlend mode="normal" in="SourceGraphic" in2="effect1_dropShadow_966_217" result="shape"/>
</filter>
</defs>
</svg>
