<svg width="17" height="13" viewBox="0 0 17 13" fill="none" xmlns="http://www.w3.org/2000/svg">
<path d="M12.085 7.80371L12.5264 8.24707L12.5977 8.31738L12.5264 8.38867L10.6299 10.2891L12.5264 12.1895L12.5977 12.2598L12.5264 12.3311L12.085 12.7734L12.0146 12.8447L11.9434 12.7734L10.0479 10.873L8.15234 12.7734L8.08203 12.8447L8.01074 12.7734L7.56934 12.3311L7.49902 12.2598L7.56934 12.1895L9.46484 10.2891L7.56934 8.38867L7.49902 8.31738L7.56934 8.24707L8.01074 7.80371L8.08203 7.7334L8.15234 7.80371L10.0479 9.7041L11.9434 7.80371L12.0146 7.7334L12.085 7.80371ZM7.40723 1.14453C8.20185 0.684856 9.12932 0.510614 10.0361 0.650391C10.9427 0.790218 11.7745 1.23558 12.3945 1.91309C12.9972 2.57173 13.3624 3.4118 13.4385 4.30078C14.1664 4.43234 14.8281 4.80995 15.3105 5.37402C15.8096 5.95766 16.0841 6.70107 16.085 7.46973C16.0849 7.894 16.0018 8.31404 15.8398 8.70605C15.6778 9.09824 15.44 9.45469 15.1406 9.75488C14.8412 10.0551 14.486 10.2936 14.0947 10.4561C13.7034 10.6185 13.2839 10.7021 12.8604 10.7021H12.1357V9.87598H12.8613C13.4654 9.87878 14.0485 9.65232 14.4932 9.24219C14.9378 8.832 15.2114 8.26809 15.2588 7.66406C15.3061 7.05985 15.1235 6.45927 14.748 5.98438C14.4196 5.5691 13.9646 5.27664 13.4561 5.14844L13.2344 5.10352L12.7402 5.02539L12.6611 5.0127L12.6562 4.93359L12.624 4.43359C12.5758 3.70332 12.2805 3.011 11.7871 2.47168C11.2937 1.93238 10.6315 1.57798 9.91016 1.4668C9.18888 1.35565 8.4514 1.49464 7.81934 1.86035C7.1872 2.2262 6.69838 2.79746 6.43359 3.47949H6.43262L6.18457 4.11621L6.14551 4.21777L6.04785 4.16895L5.43652 3.86621C5.25541 3.77622 5.05563 3.72927 4.85352 3.72852C4.61452 3.72873 4.38059 3.79743 4.17871 3.92578C4.0351 4.01634 3.91005 4.13423 3.8125 4.27344C3.73941 4.37776 3.68281 4.49251 3.64355 4.61328L3.61035 4.73633L3.53906 5.05273L3.52832 5.10352L3.48047 5.12402L3.18359 5.24902H3.18262C2.67087 5.46339 2.24862 5.84875 1.98828 6.33984C1.72794 6.83107 1.6456 7.39797 1.75488 7.94336C1.86424 8.48875 2.15852 8.97981 2.58789 9.33203C3.01733 9.68423 3.5556 9.87656 4.11035 9.87598H7.96094V10.7021H4.11035C3.36549 10.7022 2.64368 10.4437 2.06738 9.9707C1.49107 9.49766 1.09521 8.83935 0.948242 8.10742C0.801332 7.37551 0.911909 6.61472 1.26074 5.95508C1.60165 5.31056 2.15072 4.80221 2.81641 4.50977C2.87875 4.2553 2.98727 4.01448 3.1377 3.7998C3.29783 3.5713 3.50168 3.37657 3.7373 3.22754C4.07121 3.0148 4.45882 2.90221 4.85449 2.90234C5.14826 2.90284 5.43745 2.96564 5.70605 3.08301C6.04679 2.26877 6.64264 1.58688 7.40723 1.14453Z" fill="white" stroke="white" stroke-width="0.2"/>
</svg>
