<svg width="17" height="13" viewBox="0 0 17 13" fill="none" xmlns="http://www.w3.org/2000/svg">
<path d="M13.2461 7.1543L13.6875 7.61133L13.8223 7.75L13.6875 7.88965L9.58105 12.1387L9.4375 12.2881L9.29395 12.1387L7.0625 9.83008L6.92871 9.69043L7.0625 9.55176L7.50488 9.09473L7.64844 8.94531L7.79199 9.09473L9.4375 10.7969L12.958 7.1543L13.1016 7.00488L13.2461 7.1543ZM7.36914 1.37305C8.18389 0.886465 9.13548 0.701536 10.0664 0.849609C10.9974 0.99775 11.8504 1.47017 12.4854 2.18652C13.0865 2.86475 13.4544 3.72391 13.5449 4.63477C14.268 4.78706 14.9228 5.18079 15.4033 5.76074C15.9172 6.38098 16.1993 7.17048 16.2002 7.98535C16.2002 8.4352 16.1147 8.8809 15.9482 9.29688C15.7817 9.71303 15.5369 10.0919 15.2285 10.4111C14.9201 10.7303 14.5533 10.9841 14.1494 11.1572C13.7456 11.3303 13.3125 11.4189 12.875 11.4189H12.0498V10.3721H12.876C13.453 10.3749 14.0109 10.1523 14.4375 9.74609C14.8642 9.33972 15.1282 8.77993 15.1738 8.17871C15.2195 7.57738 15.0434 6.98086 14.6826 6.50977C14.322 6.03897 13.8039 5.72814 13.2334 5.6377H13.2324L12.7383 5.55762L12.5811 5.53223L12.5713 5.37305L12.5391 4.85645C12.492 4.12295 12.2043 3.42884 11.7256 2.88867C11.247 2.34862 10.6054 1.99471 9.9082 1.88379C9.21108 1.77297 8.4976 1.91178 7.88574 2.27734C7.27382 2.64307 6.79937 3.215 6.54199 3.89941L6.29395 4.55664L6.21484 4.76562L6.01562 4.66406L5.4043 4.35156C5.23724 4.26583 5.05396 4.22045 4.86816 4.21973C4.64956 4.21995 4.43467 4.2844 4.24902 4.40625V4.40723C4.11675 4.49333 4.00157 4.60603 3.91113 4.73926C3.82081 4.87237 3.75646 5.02299 3.72266 5.18262V5.18359L3.65234 5.51074L3.62988 5.61035L3.53613 5.65137L3.23828 5.78125C2.74858 5.99295 2.3433 6.37439 2.09277 6.8623C1.84219 7.35042 1.76275 7.91429 1.86816 8.45703C1.9736 8.99964 2.25711 9.48627 2.66895 9.83496C3.08068 10.1835 3.59518 10.3727 4.125 10.3721H6.8252V11.4189H4.125C3.35517 11.419 2.60964 11.143 2.01562 10.6396C1.42194 10.1364 1.01609 9.43703 0.865234 8.66113C0.714381 7.88512 0.827821 7.07899 1.18652 6.37891C1.52973 5.70907 2.07839 5.1768 2.74609 4.8623C2.81255 4.60564 2.92016 4.36192 3.06836 4.14355C3.23544 3.89742 3.44866 3.68753 3.69531 3.52637L3.8291 3.44531C4.14744 3.26731 4.50478 3.17273 4.86914 3.17285C5.14302 3.17332 5.41362 3.22655 5.66797 3.32715C6.02202 2.50975 6.61426 1.8239 7.36914 1.37305Z" fill="white" stroke="white" stroke-width="0.4"/>
</svg>
