<svg width="21" height="20" viewBox="0 0 21 20" fill="none" xmlns="http://www.w3.org/2000/svg">
<g clip-path="url(#clip0_1033_4)">
<path d="M10.5 0C8.52219 0 6.58879 0.58649 4.9443 1.6853C3.29981 2.78412 2.01809 4.3459 1.26121 6.17316C0.504333 8.00043 0.3063 10.0111 0.692152 11.9509C1.078 13.8907 2.03041 15.6725 3.42894 17.0711C4.82746 18.4696 6.60929 19.422 8.5491 19.8079C10.4889 20.1937 12.4996 19.9957 14.3268 19.2388C16.1541 18.4819 17.7159 17.2002 18.8147 15.5557C19.9135 13.9112 20.5 11.9778 20.5 10C20.5 7.34783 19.4464 4.80429 17.5711 2.92893C15.6957 1.05357 13.1522 0 10.5 0ZM10.5 16C10.3022 16 10.1089 15.9413 9.94443 15.8315C9.77998 15.7216 9.65181 15.5654 9.57612 15.3827C9.50044 15.2 9.48063 14.9989 9.51922 14.8049C9.5578 14.6109 9.65304 14.4327 9.7929 14.2929C9.93275 14.153 10.1109 14.0578 10.3049 14.0192C10.4989 13.9806 10.7 14.0004 10.8827 14.0761C11.0654 14.1518 11.2216 14.28 11.3315 14.4444C11.4414 14.6089 11.5 14.8022 11.5 15C11.5 15.2652 11.3946 15.5196 11.2071 15.7071C11.0196 15.8946 10.7652 16 10.5 16ZM11.5 10.84V12C11.5 12.2652 11.3946 12.5196 11.2071 12.7071C11.0196 12.8946 10.7652 13 10.5 13C10.2348 13 9.98043 12.8946 9.7929 12.7071C9.60536 12.5196 9.5 12.2652 9.5 12V10C9.5 9.73478 9.60536 9.48043 9.7929 9.29289C9.98043 9.10536 10.2348 9 10.5 9C10.7967 9 11.0867 8.91202 11.3334 8.7472C11.58 8.58238 11.7723 8.34811 11.8858 8.07402C11.9994 7.79993 12.0291 7.49833 11.9712 7.20736C11.9133 6.91639 11.7704 6.64912 11.5607 6.43934C11.3509 6.22956 11.0836 6.0867 10.7926 6.02882C10.5017 5.97094 10.2001 6.00065 9.92598 6.11418C9.65189 6.22771 9.41762 6.41997 9.2528 6.66664C9.08798 6.91332 9 7.20333 9 7.5C8.99996 7.76519 8.89459 8.0195 8.70706 8.20701C8.51952 8.39451 8.26519 8.49985 8 8.49985C7.73481 8.49985 7.48048 8.39451 7.29295 8.20701C7.10542 8.0195 7.00004 7.76519 7 7.5C6.99739 6.8503 7.17566 6.2127 7.51487 5.65857C7.85407 5.10445 8.34082 4.65568 8.92062 4.3625C9.50041 4.06933 10.1504 3.94332 10.7977 3.99859C11.4451 4.05386 12.0643 4.28823 12.586 4.67545C13.1077 5.06267 13.5113 5.58746 13.7516 6.19107C13.992 6.79467 14.0596 7.45327 13.9469 8.09312C13.8342 8.73297 13.5456 9.32882 13.1134 9.81395C12.6813 10.2991 12.1226 10.6544 11.5 10.84Z" fill="#2E7EFF"/>
</g>
<defs>
<clipPath id="clip0_1033_4">
<rect width="20" height="20" fill="white" transform="translate(0.5)"/>
</clipPath>
</defs>
</svg>
