<svg width="69" height="70" viewBox="0 0 69 70" fill="none" xmlns="http://www.w3.org/2000/svg">
<path d="M47.6051 15.483C47.2105 15.6767 46.8216 15.8817 46.4327 16.1096C45.2603 16.7932 44.1108 17.6249 42.9327 18.5819L40.422 15.7165C41.2856 14.9133 42.2293 14.1841 43.2301 13.5404C44.025 13.022 44.86 12.5663 45.7121 12.1675C46.0553 11.9966 46.3984 11.8371 46.7473 11.689C45.0888 8.76666 42.7039 6.67031 40.0046 5.37717C37.3109 4.08974 34.2855 3.59413 31.346 3.87327C28.4235 4.1524 25.5812 5.21197 23.2364 7.02919C20.5256 9.12555 18.4553 12.2587 17.6661 16.4115L17.4201 17.7103L16.1219 17.9382C14.8523 18.1604 13.7142 18.4623 12.7191 18.8497C11.7526 19.2256 10.8947 19.6814 10.1398 20.2226C9.53933 20.6555 9.0189 21.1454 8.57853 21.6695C7.21169 23.2987 6.57688 25.3438 6.59403 27.4117C6.61119 29.5137 7.29747 31.6329 8.56138 33.376C9.03034 34.0254 9.57936 34.6179 10.2027 35.1363C10.8318 35.6604 11.5467 36.0933 12.3474 36.418C13.1423 36.7427 14.0173 36.9763 14.9953 37.113H52.6665C54.5023 36.6744 56.1208 36.0762 57.4933 35.3129C58.8602 34.5495 59.9754 33.6267 60.8104 32.5158C62.1086 30.7955 62.7491 28.3573 62.772 25.8622C62.8006 23.2418 62.1601 20.6099 60.9076 18.6902C60.5473 18.1376 60.1584 17.642 59.7409 17.192C57.8651 15.181 55.486 14.3038 53.0153 14.2867C51.2138 14.2753 49.3666 14.7082 47.6051 15.483ZM64.8022 47.9992C65.9632 47.9992 67.0098 48.4664 67.7704 49.224C68.531 49.9817 69 51.0298 69 52.1806C69 53.337 68.531 54.3795 67.7704 55.1371C67.0098 55.8948 65.9575 56.3619 64.8022 56.3619C63.6413 56.3619 62.5947 55.8948 61.8341 55.1371C61.4395 54.744 61.1192 54.2712 60.9076 53.7414H50.4589C49.6354 53.7414 48.9663 53.0749 48.9663 52.2546V40.9184H41.0797V61.899C41.6402 62.1098 42.1435 62.4402 42.5552 62.8503C43.3159 63.608 43.7848 64.6561 43.7848 65.8069C43.7848 66.9633 43.3159 68.0058 42.5552 68.7634C41.7946 69.5211 40.7423 69.9882 39.5871 69.9882C38.4261 69.9882 37.3795 69.5211 36.6189 68.7634C35.8583 68.0058 35.3893 66.9576 35.3893 65.8069C35.3893 64.6504 35.8583 63.608 36.6189 62.8503C37.0364 62.4345 37.5339 62.1098 38.0944 61.899V40.924H29.1785V65.5733C29.1785 66.3936 28.5093 67.0601 27.6858 67.0601H11.0777C10.8719 67.7152 10.5116 68.302 10.0369 68.7748C9.27625 69.5324 8.22395 69.9996 7.06871 69.9996C5.90775 69.9996 4.86117 69.5324 4.10054 68.7748C3.33991 68.0171 2.87095 66.969 2.87095 65.8183C2.87095 64.6618 3.33991 63.6194 4.10054 62.8617C4.86117 62.1041 5.91347 61.6369 7.06871 61.6369C8.22967 61.6369 9.27625 62.1041 10.0369 62.8617C10.3915 63.2149 10.6831 63.6308 10.8947 64.0922H26.1931V40.924H18.6783V48.5803C18.6783 49.4006 18.0092 50.0671 17.1857 50.0671H8.11529C7.90369 50.6083 7.5777 51.0925 7.17165 51.497C6.41102 52.2546 5.35872 52.7217 4.20348 52.7217C3.04824 52.7217 1.99594 52.2546 1.23531 51.497C0.46896 50.745 0 49.6968 0 48.5404C0 47.384 0.46896 46.3415 1.22959 45.5839C1.99022 44.8262 3.04252 44.3591 4.19776 44.3591C5.353 44.3591 6.4053 44.8262 7.16593 45.5839C7.58914 46.0054 7.92656 46.5238 8.13817 47.0935H15.6873V40.924H14.9038L14.6636 40.9013C13.2796 40.7247 12.0157 40.4 10.8776 39.9328C9.69946 39.4486 8.65288 38.822 7.73212 38.053C6.86283 37.3295 6.09648 36.5035 5.44451 35.6091C3.71165 33.2279 2.77944 30.317 2.75657 27.4231C2.75085 24.5007 3.66589 21.5897 5.63896 19.2313C6.27949 18.468 7.02868 17.7673 7.89225 17.1464C8.89308 16.4229 10.0426 15.8077 11.3351 15.3064C12.2273 14.9589 13.1823 14.6684 14.1946 14.4405C15.3384 9.92307 17.7747 6.44244 20.903 4.02138C23.8312 1.75982 27.3598 0.443907 30.9857 0.0964133C34.5944 -0.25108 38.3174 0.358458 41.6516 1.95351C45.3004 3.69667 48.4744 6.59625 50.539 10.6807C51.3683 10.5497 52.1975 10.487 53.0268 10.4927C56.5154 10.5155 59.8782 11.7574 62.5318 14.6057C63.0865 15.2038 63.6127 15.8703 64.1045 16.6223C65.7688 19.1687 66.6152 22.5639 66.5809 25.8907C66.5465 29.1548 65.6601 32.4019 63.8529 34.7945C62.6748 36.3554 61.1649 37.6257 59.352 38.634C57.6077 39.6081 55.5717 40.3487 53.2898 40.8728L52.8666 40.924H51.963V50.7735H60.8561C61.0677 50.1867 61.4051 49.657 61.8398 49.224C62.589 48.4664 63.6413 47.9992 64.8022 47.9992Z" fill="#B04A4A"/>
</svg>
