<svg width="20" height="20" viewBox="0 0 20 20" fill="none" xmlns="http://www.w3.org/2000/svg">
<path fill-rule="evenodd" clip-rule="evenodd" d="M2 16L3.33333 13.3333L2.66667 12L0 10.6667V8.66667L2.66667 7.33333L3.33333 6L2 4L4 2L6.66667 3.33333L8 2.66667L8.66667 0H11.3333L12.6667 2.66667L13.3333 3.33333L16 2L18 4L16.6667 6L17.3333 7.33333L20 8.66667V11.3333L18 12H17.3333L16.6667 13.3333L18 16L16 18L13.3333 16.6667L12 17.3333L11.3333 20H8.66667L7.33333 16.6667H6L4 18L2 16ZM10 14C12.2091 14 14 12.2091 14 10C14 7.79086 12.2091 6 10 6C7.79086 6 6 7.79086 6 10C6 12.2091 7.79086 14 10 14Z" fill="white"/>
</svg>
