<svg width="99" height="70" viewBox="0 0 99 70" fill="none" xmlns="http://www.w3.org/2000/svg">
<circle cx="18.0371" cy="43.5" r="2" fill="#B04A4A"/>
<path d="M78.5371 59.5V44.5H98.0371V59.5H78.5371Z" fill="#B04A4A"/>
<path d="M82.0371 30.5V18.5H98.5371V30.5H82.0371Z" fill="#B04A4A"/>
<path d="M92.5374 0C93.5375 0.500083 95.5374 1.9001 95.5374 3.5V15.5H78.5374V33H95.5374V41.5H76.0374V63H95.5374C95.0372 64.3335 93.437 66.9998 91.0374 67H63.5374V53.5H51.0374V67H45.5374V53.5H24.0374V67H19.5374V70H16.5374V67H13.0374V70H10.0374V67H7.53743V70H4.03743V67C2.53695 66.8327 -0.362198 65.7987 0.037427 63C0.437427 60.2 0.204094 22.8333 0.037427 4.5C-0.129214 3.50001 0.239012 1.20005 3.03743 0H92.5374ZM42.0374 70L27.0374 69.5V56.5H42.0374V70ZM60.5374 70L54.0374 69.5V56.5H60.5374V70ZM8.0384 56.5C6.38185 56.5004 5.0384 57.8434 5.0384 59.5C5.0384 61.1566 6.38185 62.4996 8.0384 62.5C9.69513 62.4998 11.0384 61.1568 11.0384 59.5C11.0384 57.8432 9.69513 56.5002 8.0384 56.5ZM70.0384 56.5C68.382 56.5005 67.0384 57.8435 67.0384 59.5C67.0384 61.1565 68.382 62.4995 70.0384 62.5C71.6951 62.4999 73.0384 61.1568 73.0384 59.5C73.0384 57.8432 71.6951 56.5001 70.0384 56.5ZM4.5384 48H10.0384V45.5H7.5384V42H10.0384V38.5H7.5384V35.5H10.0384V32.5H7.5384V30H10.0384V27H4.5384V48ZM13.5374 48H22.5374V39H13.5374V48ZM15.5384 18H18.0384V20.5H15.5384V23.5H18.0384V26.5H15.5384V30H18.0384V33.5H15.5384V36H21.0384V15H15.5384V18ZM41.0374 25V36H54.5374V22.5H43.5374L41.0374 25ZM4.53743 24H9.03743V19.5H4.53743V24ZM7.0384 4.5C5.382 4.50053 4.0384 5.84347 4.0384 7.5C4.0384 9.15653 5.382 10.4995 7.0384 10.5C8.69514 10.4999 10.0384 9.15677 10.0384 7.5C10.0384 5.84323 8.69514 4.50014 7.0384 4.5ZM16.0384 10.5H19.5384V8.5H16.0384V10.5ZM22.0384 10.5H25.5384V8.5H22.0384V10.5ZM28.0384 10.5H31.5384V8.5H28.0384V10.5ZM34.0384 10.5H37.5384V8.5H34.0384V10.5ZM40.0384 10.5H43.5384V8.5H40.0384V10.5ZM46.0384 10.5H49.5384V8.5H46.0384V10.5ZM52.0384 10.5H55.5384V8.5H52.0384V10.5ZM58.0384 10.5H61.5384V8.5H58.0384V10.5ZM70.0384 4.5C68.382 4.50053 67.0384 5.84347 67.0384 7.5C67.0384 9.15653 68.382 10.4995 70.0384 10.5C71.6951 10.4999 73.0384 9.15677 73.0384 7.5C73.0384 5.84323 71.6951 4.50014 70.0384 4.5ZM16.0384 6.5H19.5384V4.5H16.0384V6.5ZM22.0384 6.5H25.5384V4.5H22.0384V6.5ZM28.0384 6.5H31.5384V4.5H28.0384V6.5ZM34.0384 4.5V6.5H37.5384V4.5H34.0384ZM40.0384 6.5H43.5384V4.5H40.0384V6.5ZM46.0384 6.5H49.5384V4.5H46.0384V6.5ZM52.0384 6.5H55.5384V4.5H52.0384V6.5ZM58.0384 6.5H61.5384V4.5H58.0384V6.5Z" fill="#B04A4A"/>
</svg>
