<svg width="99" height="70" viewBox="0 0 99 70" fill="none" xmlns="http://www.w3.org/2000/svg">
<circle cx="18.0371" cy="43.5" r="2" fill="#C49A00"/>
<path d="M78.5371 59.5V44.5H98.0371V59.5H78.5371Z" fill="#C49A00"/>
<path d="M82.0371 30.5V18.5H98.5371V30.5H82.0371Z" fill="#C49A00"/>
<path d="M92.5365 0C93.5365 0.5 95.5365 1.9 95.5365 3.5V15.5H78.5365V33H95.5365V41.5H76.0365V63H95.5365C95.0362 64.3335 93.4361 67 91.0365 67H63.5365V53.5H51.0365V67H45.5365V53.5H24.0365V67H19.5365V70H16.5365V67H13.0365V70H10.0365V67H7.53646V70H4.03743V67C2.53701 66.8328 -0.362231 65.7988 0.0374329 63C0.43742 60.1995 0.204098 22.8332 0.0374329 4.5C-0.129219 3.50004 0.238074 1.20007 3.03646 0H92.5365ZM42.0365 70L27.0365 69.5V56.5H42.0365V70ZM60.5365 70L54.0365 69.5V56.5H60.5365V70ZM8.03743 56.5C6.38089 56.5004 5.03743 57.8434 5.03743 59.5C5.03743 61.1566 6.38089 62.4996 8.03743 62.5C9.69429 62.5 11.0374 61.1569 11.0374 59.5C11.0374 57.8431 9.69429 56.5 8.03743 56.5ZM70.0374 56.5C68.3811 56.5006 67.0374 57.8435 67.0374 59.5C67.0374 61.1565 68.3811 62.4994 70.0374 62.5C71.6943 62.5 73.0374 61.1569 73.0374 59.5C73.0374 57.8431 71.6943 56.5 70.0374 56.5ZM4.53743 48H10.0374V45.5H7.53743V42H10.0374V38.5H7.53743V35.5H10.0374V32.5H7.53743V30H10.0374V27H4.53743V48ZM13.5365 48H22.5365V39H13.5365V48ZM15.5374 18H18.0374V20.5H15.5374V23.5H18.0374V26.5H15.5374V30H18.0374V33.5H15.5374V36H21.0374V15H15.5374V18ZM41.0365 25V36H54.5365V22.5H43.5365L41.0365 25ZM4.53646 24H9.03646V19.5H4.53646V24ZM7.03743 4.5C5.38105 4.50056 4.03743 5.84349 4.03743 7.5C4.03743 9.15651 5.38105 10.4994 7.03743 10.5C8.69429 10.5 10.0374 9.15685 10.0374 7.5C10.0374 5.84315 8.69429 4.5 7.03743 4.5ZM16.0374 10.5H19.5374V8.5H16.0374V10.5ZM22.0374 10.5H25.5374V8.5H22.0374V10.5ZM28.0374 10.5H31.5374V8.5H28.0374V10.5ZM34.0374 10.5H37.5374V8.5H34.0374V10.5ZM40.0374 10.5H43.5374V8.5H40.0374V10.5ZM46.0374 10.5H49.5374V8.5H46.0374V10.5ZM52.0374 10.5H55.5374V8.5H52.0374V10.5ZM58.0374 10.5H61.5374V8.5H58.0374V10.5ZM70.0374 4.5C68.3811 4.50056 67.0374 5.84349 67.0374 7.5C67.0374 9.15651 68.3811 10.4994 70.0374 10.5C71.6943 10.5 73.0374 9.15685 73.0374 7.5C73.0374 5.84315 71.6943 4.5 70.0374 4.5ZM16.0374 6.5H19.5374V4.5H16.0374V6.5ZM22.0374 6.5H25.5374V4.5H22.0374V6.5ZM28.0374 6.5H31.5374V4.5H28.0374V6.5ZM34.0374 4.5V6.5H37.5374V4.5H34.0374ZM40.0374 6.5H43.5374V4.5H40.0374V6.5ZM46.0374 6.5H49.5374V4.5H46.0374V6.5ZM52.0374 6.5H55.5374V4.5H52.0374V6.5ZM58.0374 6.5H61.5374V4.5H58.0374V6.5Z" fill="#C49A00"/>
</svg>
