<svg width="99" height="70" viewBox="0 0 99 70" fill="none" xmlns="http://www.w3.org/2000/svg">
<circle cx="18.0371" cy="43.5" r="2" fill="white"/>
<path d="M78.5371 59.5V44.5H98.0371V59.5H78.5371Z" fill="white"/>
<path d="M82.0371 30.5V18.5H98.5371V30.5H82.0371Z" fill="white"/>
<path d="M92.5365 0C93.5365 0.5 95.5365 1.9 95.5365 3.5V15.5H78.5365V33H95.5365V41.5H76.0365V63H95.5365C95.0362 64.3336 93.436 67 91.0365 67H63.5365V53.5H51.0365V67H45.5365V53.5H24.0365V67H19.5365V70H16.5365V67H13.0365V70H10.0365V67H7.53645V70H4.03743V67C2.53697 66.8327 -0.362213 65.7987 0.0374296 63C0.437423 60.1997 0.204096 22.8333 0.0374296 4.5C-0.12921 3.50006 0.238348 1.2001 3.03645 0H92.5365ZM42.0365 70L27.0365 69.5V56.5H42.0365V70ZM60.5365 70L54.0365 69.5V56.5H60.5365V70ZM8.03743 56.5C6.38105 56.5006 5.03743 57.8435 5.03743 59.5C5.03743 61.1565 6.38105 62.4994 8.03743 62.5C9.69428 62.5 11.0374 61.1569 11.0374 59.5C11.0374 57.8431 9.69428 56.5 8.03743 56.5ZM70.0374 56.5C68.3812 56.5007 67.0374 57.8436 67.0374 59.5C67.0374 61.1564 68.3812 62.4993 70.0374 62.5C71.6943 62.5 73.0374 61.1569 73.0374 59.5C73.0374 57.8431 71.6943 56.5 70.0374 56.5ZM4.53743 48H10.0374V45.5H7.53743V42H10.0374V38.5H7.53743V35.5H10.0374V32.5H7.53743V30H10.0374V27H4.53743V48ZM13.5365 48H22.5365V39H13.5365V48ZM15.5374 18H18.0374V20.5H15.5374V23.5H18.0374V26.5H15.5374V30H18.0374V33.5H15.5374V36H21.0374V15H15.5374V18ZM41.0365 25V36H54.5365V22.5H43.5365L41.0365 25ZM4.53645 24H9.03645V19.5H4.53645V24ZM7.03743 4.5C5.38121 4.50074 4.03743 5.8436 4.03743 7.5C4.03743 9.1564 5.38121 10.4993 7.03743 10.5C8.69428 10.5 10.0374 9.15685 10.0374 7.5C10.0374 5.84315 8.69428 4.5 7.03743 4.5ZM16.0374 10.5H19.5374V8.5H16.0374V10.5ZM22.0374 10.5H25.5374V8.5H22.0374V10.5ZM28.0374 10.5H31.5374V8.5H28.0374V10.5ZM34.0374 10.5H37.5374V8.5H34.0374V10.5ZM40.0374 10.5H43.5374V8.5H40.0374V10.5ZM46.0374 10.5H49.5374V8.5H46.0374V10.5ZM52.0374 10.5H55.5374V8.5H52.0374V10.5ZM58.0374 10.5H61.5374V8.5H58.0374V10.5ZM70.0374 4.5C68.3812 4.50074 67.0374 5.8436 67.0374 7.5C67.0374 9.1564 68.3812 10.4993 70.0374 10.5C71.6943 10.5 73.0374 9.15685 73.0374 7.5C73.0374 5.84315 71.6943 4.5 70.0374 4.5ZM16.0374 6.5H19.5374V4.5H16.0374V6.5ZM22.0374 6.5H25.5374V4.5H22.0374V6.5ZM28.0374 6.5H31.5374V4.5H28.0374V6.5ZM34.0374 4.5V6.5H37.5374V4.5H34.0374ZM40.0374 6.5H43.5374V4.5H40.0374V6.5ZM46.0374 6.5H49.5374V4.5H46.0374V6.5ZM52.0374 6.5H55.5374V4.5H52.0374V6.5ZM58.0374 6.5H61.5374V4.5H58.0374V6.5Z" fill="white"/>
</svg>
