<svg width="69" height="44" viewBox="0 0 69 44" fill="none" xmlns="http://www.w3.org/2000/svg">
<path d="M35 5.43936V3H51.188C55.402 3 58.673 3.88704 61.001 5.60568C63.33 7.3243 64.55 9.7637 64.55 12.9238C64.55 15.1968 63.94 17.0263 62.775 18.5232C61.611 20.0755 60.003 21.1843 58.063 21.7942C60.835 22.3486 62.942 23.4019 64.383 25.0651C65.825 26.7838 66.601 28.9459 66.601 31.5516C66.601 34.878 65.381 37.3728 62.997 39.1469C60.558 40.921 57.01 41.808 52.297 41.808H35V39.3686M35 5.43936V11.5M35 5.43936H51.078C54.459 5.43936 57.065 6.1046 58.895 7.4352C60.724 8.7658 61.667 10.6507 61.667 13.1455C61.667 15.6958 60.724 17.6362 58.895 18.9667C57.065 20.2973 54.459 20.9071 51.078 20.9071H35V23.3465H52.297C56.012 23.3465 58.895 24.0118 60.835 25.2869C62.775 26.6174 63.773 28.6133 63.773 31.3298C63.773 34.1018 62.775 36.0977 60.835 37.4282C58.895 38.7588 56.067 39.3686 52.297 39.3686H35M35 39.3686V34.5" stroke="#CE1B3F" stroke-width="3" stroke-miterlimit="2"/>
<path d="M14.5918 28.1123C17.4747 27.2807 27.6133 24.9522 29.1656 22.8455C30.7179 20.7387 31.5495 18.1885 31.5495 15.0839C31.5495 11.0367 30.1635 7.82118 27.3915 5.49273C24.6195 3.16425 20.7942 2 15.9154 2H2V4.55025H15.9154C20.018 4.55025 23.1781 5.49273 25.3957 7.32228C27.5578 9.15178 28.6666 11.7575 28.6666 15.0839C28.6666 18.4657 27.5578 21.0714 25.3957 22.9009C23.1781 24.7304 9.1944 24.586 5.0918 24.586L4.82744 13.086H2V40.808H4.82744V28.1123H15.9154C17.0242 28.1123 11.2058 28.334 12.5918 28.1123L28.9438 40.808H32.1594L14.5918 28.1123Z" fill="#CE1B3F" stroke="#CE1B3F" stroke-width="3" stroke-miterlimit="2"/>
</svg>
