<svg width="100" height="70" viewBox="0 0 100 70" fill="none" xmlns="http://www.w3.org/2000/svg">
<circle cx="19" cy="43.5" r="2" fill="#CE1B3F"/>
<path d="M79.5 59.5V44.5H99V59.5H79.5Z" fill="#CE1B3F"/>
<path d="M83 30.5V18.5H99.5V30.5H83Z" fill="#CE1B3F"/>
<path d="M93.4993 0C94.4993 0.5 96.4993 1.9 96.4993 3.5V15.5H79.4993V33H96.4993V41.5H76.9993V63H96.4993C95.9991 64.3335 94.399 67 91.9993 67H64.4993V53.5H51.9993V67H46.4993V53.5H24.9993V67H20.4993V70H17.4993V67H13.9993V70H10.9993V67H8.49935V70H5.00032V67C3.4999 66.8328 0.600659 65.7988 1.00032 63C1.40031 60.1995 1.16699 22.8332 1.00032 4.5C0.833671 3.50004 1.20096 1.20007 3.99935 0H93.4993ZM42.9993 70L27.9993 69.5V56.5H42.9993V70ZM61.4993 70L54.9993 69.5V56.5H61.4993V70ZM9.00032 56.5C7.34378 56.5004 6.00032 57.8434 6.00032 59.5C6.00032 61.1566 7.34378 62.4996 9.00032 62.5C10.6572 62.5 12.0003 61.1569 12.0003 59.5C12.0003 57.8431 10.6572 56.5 9.00032 56.5ZM71.0003 56.5C69.3439 56.5006 68.0003 57.8435 68.0003 59.5C68.0003 61.1565 69.3439 62.4994 71.0003 62.5C72.6572 62.5 74.0003 61.1569 74.0003 59.5C74.0003 57.8431 72.6572 56.5 71.0003 56.5ZM5.50032 48H11.0003V45.5H8.50032V42H11.0003V38.5H8.50032V35.5H11.0003V32.5H8.50032V30H11.0003V27H5.50032V48ZM14.4993 48H23.4993V39H14.4993V48ZM16.5003 18H19.0003V20.5H16.5003V23.5H19.0003V26.5H16.5003V30H19.0003V33.5H16.5003V36H22.0003V15H16.5003V18ZM41.9993 25V36H55.4993V22.5H44.4993L41.9993 25ZM5.49935 24H9.99935V19.5H5.49935V24ZM8.00032 4.5C6.34394 4.50056 5.00032 5.84349 5.00032 7.5C5.00032 9.15651 6.34394 10.4994 8.00032 10.5C9.65718 10.5 11.0003 9.15685 11.0003 7.5C11.0003 5.84315 9.65718 4.5 8.00032 4.5ZM17.0003 10.5H20.5003V8.5H17.0003V10.5ZM23.0003 10.5H26.5003V8.5H23.0003V10.5ZM29.0003 10.5H32.5003V8.5H29.0003V10.5ZM35.0003 10.5H38.5003V8.5H35.0003V10.5ZM41.0003 10.5H44.5003V8.5H41.0003V10.5ZM47.0003 10.5H50.5003V8.5H47.0003V10.5ZM53.0003 10.5H56.5003V8.5H53.0003V10.5ZM59.0003 10.5H62.5003V8.5H59.0003V10.5ZM71.0003 4.5C69.3439 4.50056 68.0003 5.84349 68.0003 7.5C68.0003 9.15651 69.3439 10.4994 71.0003 10.5C72.6572 10.5 74.0003 9.15685 74.0003 7.5C74.0003 5.84315 72.6572 4.5 71.0003 4.5ZM17.0003 6.5H20.5003V4.5H17.0003V6.5ZM23.0003 6.5H26.5003V4.5H23.0003V6.5ZM29.0003 6.5H32.5003V4.5H29.0003V6.5ZM35.0003 4.5V6.5H38.5003V4.5H35.0003ZM41.0003 6.5H44.5003V4.5H41.0003V6.5ZM47.0003 6.5H50.5003V4.5H47.0003V6.5ZM53.0003 6.5H56.5003V4.5H53.0003V6.5ZM59.0003 6.5H62.5003V4.5H59.0003V6.5Z" fill="#CE1B3F"/>
</svg>
